<svg width="12" height="12" viewBox="0 0 12 12" fill="none" xmlns="http://www.w3.org/2000/svg">
<path d="M8.87634 8.87634L11.043 11.043" stroke="#F79009" stroke-linecap="round" stroke-linejoin="round"/>
<path d="M2.63193 1.45162L4.44435 2.0625C4.69494 2.14924 5.0752 2.09252 5.29052 1.93912L6.56195 1.03238C7.3754 0.452882 8.04868 0.798502 8.04939 1.80305L8.05638 3.50362C8.05757 3.79161 8.25785 4.149 8.50187 4.30429L9.80095 5.11876C10.8285 5.76412 10.7117 6.52819 9.5406 6.82508L7.91063 7.23664C7.61614 7.31086 7.31231 7.61474 7.2347 7.9127L6.82321 9.54297C6.52979 10.7109 5.759 10.8277 5.11721 9.80337L4.30289 8.50405C4.14763 8.25999 3.79031 8.05967 3.50236 8.05848L1.80212 8.05148C0.801166 8.04737 0.452196 7.37737 1.03158 6.56378L1.93816 5.29211C2.08812 5.08016 2.14482 4.69983 2.0581 4.44919L1.44734 2.63643C1.11764 1.6511 1.65019 1.11845 2.63193 1.45162Z" fill="#F79009" fill-opacity="0.15" stroke="#F79009" stroke-width="1.5" stroke-linecap="round" stroke-linejoin="round"/>
</svg>
