<svg width="127" height="39" viewBox="0 0 127 39" fill="none" xmlns="http://www.w3.org/2000/svg">
<g filter="url(#filter0_dd_4138_16615)">
<mask id="path-1-outside-1_4138_16615" maskUnits="userSpaceOnUse" x="3.27264" y="0.77674" width="105.561" height="36.7271" fill="black">
<rect fill="white" x="3.27264" y="0.77674" width="105.561" height="36.7271"/>
<path d="M22.363 10.4977L23.2514 26.473L20.3341 26.6352L12.8247 16.967L12.7077 16.9735L13.2669 27.0283L9.88928 27.2161L9.00084 11.2408L11.965 11.0759L19.4193 20.7394L19.5598 20.7316L19.001 10.6846L22.363 10.4977ZM31.453 26.2516C30.2205 26.3201 29.1458 26.1295 28.2288 25.6798C27.3166 25.2245 26.5958 24.5499 26.0662 23.6561C25.5363 22.757 25.2362 21.6757 25.1659 20.412C25.0974 19.1795 25.2764 18.0846 25.7031 17.1271C26.1297 16.1697 26.7628 15.4068 27.6024 14.8384C28.4471 14.2698 29.4571 13.9528 30.6323 13.8875C31.4228 13.8435 32.1657 13.93 32.8611 14.1469C33.5615 14.3584 34.1805 14.7021 34.7181 15.1782C35.261 15.654 35.6967 16.2662 36.0253 17.0147C36.3535 17.758 36.546 18.6393 36.6026 19.6586L36.6534 20.5713L26.5362 21.1339L26.4217 19.0746L33.4109 18.6859C33.3843 18.2075 33.2567 17.7894 33.0282 17.4318C32.7996 17.0741 32.495 16.8016 32.1142 16.6141C31.7383 16.4211 31.3085 16.3381 30.8249 16.365C30.3205 16.393 29.8798 16.5349 29.5027 16.7906C29.1307 17.0408 28.8462 17.367 28.6495 17.7692C28.4525 18.1662 28.3646 18.6014 28.3857 19.0749L28.4946 21.0328C28.5275 21.6257 28.6652 22.1318 28.9076 22.5513C29.1553 22.9705 29.4884 23.2858 29.907 23.4973C30.3257 23.7087 30.8132 23.799 31.3696 23.768C31.7389 23.7475 32.074 23.6767 32.375 23.5556C32.676 23.4345 32.93 23.2639 33.1368 23.0438C33.3437 22.8236 33.4959 22.5595 33.5935 22.2516L36.6782 22.2835C36.5633 23.0306 36.2793 23.6932 35.8263 24.2713C35.3783 24.844 34.7831 25.3048 34.041 25.6538C33.3037 25.9974 32.441 26.1967 31.453 26.2516ZM42.537 25.6274C41.7725 25.6699 41.0839 25.5751 40.4711 25.3432C39.8581 25.106 39.3627 24.7345 38.9851 24.2287C38.6124 23.7173 38.404 23.0664 38.3601 22.276C38.323 21.6104 38.4142 21.0445 38.6334 20.5785C38.8527 20.1125 39.1652 19.73 39.5711 19.4309C39.977 19.1319 40.4439 18.8973 40.9717 18.7271C41.5047 18.5566 42.0661 18.4262 42.6557 18.3361C43.3485 18.2245 43.9064 18.1257 44.3293 18.0396C44.752 17.9482 45.0559 17.8322 45.2411 17.6915C45.4263 17.5508 45.5118 17.3531 45.4976 17.0982L45.495 17.0514C45.4676 16.5574 45.2903 16.1839 44.9632 15.9308C44.6414 15.6774 44.197 15.5665 43.6302 15.5981C43.0322 15.6313 42.5637 15.7904 42.2248 16.0753C41.8857 16.3549 41.6699 16.6956 41.5775 17.0972L38.4902 17.0185C38.6057 16.2818 38.8775 15.6355 39.3057 15.0796C39.7335 14.5185 40.3009 14.0748 41.0078 13.7486C41.7197 13.4169 42.554 13.2245 43.5109 13.1712C44.1765 13.1342 44.8179 13.1768 45.435 13.299C46.0573 13.4209 46.6142 13.6325 47.1056 13.9338C47.6023 14.2348 48.0027 14.635 48.307 15.1345C48.6109 15.6288 48.7827 16.2322 48.8224 16.9446L49.2718 25.0259L46.1204 25.2012L46.028 23.5397L45.9344 23.5449C45.7628 23.93 45.5238 24.2745 45.2172 24.5785C44.9104 24.8772 44.5353 25.1198 44.0919 25.3061C43.6481 25.4873 43.1298 25.5944 42.537 25.6274ZM43.3611 23.2811C43.8499 23.2539 44.2762 23.1337 44.6399 22.9205C45.0033 22.702 45.2824 22.4205 45.4771 22.0758C45.6718 21.7311 45.7575 21.3482 45.734 20.927L45.6633 19.6555C45.5631 19.7289 45.4235 19.7992 45.2447 19.8666C45.0708 19.9284 44.8733 19.9889 44.6523 20.0482C44.431 20.1022 44.2096 20.1536 43.988 20.2025C43.7661 20.2461 43.5649 20.286 43.3843 20.3221C42.9975 20.401 42.6619 20.511 42.3776 20.652C42.0934 20.793 41.8766 20.9746 41.7272 21.1967C41.5776 21.4137 41.5114 21.6782 41.5288 21.9902C41.5539 22.4427 41.737 22.7794 42.0779 23.0004C42.4237 23.2159 42.8515 23.3094 43.3611 23.2811ZM51.8498 24.8825L51.1835 12.901L54.4051 12.7219L54.5213 14.8124L54.6462 14.8055C54.8232 14.0497 55.1586 13.4676 55.6523 13.0594C56.1457 12.6459 56.7279 12.4206 57.3987 12.3832C57.5651 12.374 57.7451 12.3744 57.9387 12.3845C58.1322 12.3946 58.3028 12.4138 58.4505 12.4421L58.6145 15.3907C58.4558 15.3526 58.2377 15.323 57.9601 15.3019C57.6824 15.2808 57.4292 15.2766 57.2004 15.2894C56.7116 15.3166 56.2807 15.4475 55.9077 15.6821C55.5397 15.9112 55.2542 16.2192 55.0514 16.606C54.8539 16.9926 54.7687 17.4303 54.7958 17.9191L55.1728 24.6977L51.8498 24.8825ZM68.2232 28.4789C67.802 28.5023 67.4049 28.4905 67.0319 28.4434C66.6644 28.4013 66.3583 28.3374 66.1136 28.2519L66.7245 25.7297C67.1212 25.8277 67.4758 25.8731 67.7884 25.8662C68.1062 25.859 68.3752 25.771 68.5953 25.6022C68.8207 25.4332 68.9957 25.1574 69.1205 24.7749L69.2873 24.257L64.3038 12.1714L67.7985 11.977L70.7683 20.638L70.8931 20.631L72.9077 11.6929L76.4257 11.4972L72.5072 25.0326C72.3195 25.6898 72.0465 26.2684 71.6883 26.7682C71.3355 27.273 70.8752 27.6715 70.3072 27.9639C69.7395 28.2615 69.0449 28.4332 68.2232 28.4789ZM83.833 23.3386C82.6213 23.406 81.5591 23.2068 80.6464 22.7411C79.7387 22.27 79.0198 21.5849 78.4899 20.6858C77.9597 19.7816 77.6605 18.7158 77.5923 17.4886C77.5234 16.2509 77.7025 15.1559 78.1294 14.2037C78.5561 13.2462 79.1945 12.4856 80.0448 11.9219C80.8999 11.3527 81.9333 11.0344 83.145 10.9671C84.3566 10.8997 85.4163 11.1016 86.3241 11.5727C87.2368 12.0384 87.9582 12.7233 88.4884 13.6276C89.0183 14.5266 89.3177 15.595 89.3865 16.8327C89.4548 18.0599 89.2756 19.1523 88.8489 20.1097C88.422 21.062 87.7809 21.8227 86.9258 22.3919C86.0756 22.9556 85.0446 23.2712 83.833 23.3386ZM83.7054 20.7636C84.2567 20.7329 84.7082 20.5513 85.0601 20.2187C85.4116 19.881 85.6659 19.4339 85.8227 18.8774C85.9847 18.3207 86.0464 17.6939 86.0076 16.9971C85.9689 16.3003 85.8381 15.6842 85.6153 15.1488C85.3978 14.6132 85.0955 14.1971 84.7087 13.9004C84.3218 13.6037 83.8528 13.4707 83.3015 13.5013C82.7451 13.5323 82.2859 13.7169 81.9239 14.0552C81.5671 14.3933 81.3077 14.8407 81.1457 15.3974C80.9888 15.9539 80.9298 16.5805 80.9686 17.2773C81.0073 17.9742 81.1355 18.5904 81.353 19.126C81.5758 19.6614 81.8832 20.0772 82.2753 20.3736C82.6723 20.6645 83.149 20.7945 83.7054 20.7636ZM99.2775 17.1276L98.8949 10.2476L102.218 10.0628L102.884 22.0443L99.6939 22.2217L99.5728 20.0454L99.448 20.0524C99.2167 20.7694 98.7982 21.3587 98.1927 21.8201C97.5924 22.2812 96.8424 22.5368 95.9427 22.5869C95.1419 22.6314 94.4271 22.4886 93.7984 22.1584C93.1698 21.8282 92.6652 21.3372 92.2846 20.6855C91.9093 20.0334 91.693 19.2395 91.6358 18.3038L91.2115 10.6749L94.5345 10.4901L94.9258 17.5261C94.9703 18.2331 95.1912 18.7816 95.5885 19.1716C95.9857 19.5616 96.499 19.7391 97.1282 19.7041C97.5287 19.6818 97.898 19.57 98.2363 19.3686C98.5743 19.162 98.8398 18.8708 99.0328 18.4949C99.2309 18.1187 99.3125 17.663 99.2775 17.1276Z"/>
</mask>
<path d="M22.363 10.4977L23.2514 26.473L20.3341 26.6352L12.8247 16.967L12.7077 16.9735L13.2669 27.0283L9.88928 27.2161L9.00084 11.2408L11.965 11.0759L19.4193 20.7394L19.5598 20.7316L19.001 10.6846L22.363 10.4977ZM31.453 26.2516C30.2205 26.3201 29.1458 26.1295 28.2288 25.6798C27.3166 25.2245 26.5958 24.5499 26.0662 23.6561C25.5363 22.757 25.2362 21.6757 25.1659 20.412C25.0974 19.1795 25.2764 18.0846 25.7031 17.1271C26.1297 16.1697 26.7628 15.4068 27.6024 14.8384C28.4471 14.2698 29.4571 13.9528 30.6323 13.8875C31.4228 13.8435 32.1657 13.93 32.8611 14.1469C33.5615 14.3584 34.1805 14.7021 34.7181 15.1782C35.261 15.654 35.6967 16.2662 36.0253 17.0147C36.3535 17.758 36.546 18.6393 36.6026 19.6586L36.6534 20.5713L26.5362 21.1339L26.4217 19.0746L33.4109 18.6859C33.3843 18.2075 33.2567 17.7894 33.0282 17.4318C32.7996 17.0741 32.495 16.8016 32.1142 16.6141C31.7383 16.4211 31.3085 16.3381 30.8249 16.365C30.3205 16.393 29.8798 16.5349 29.5027 16.7906C29.1307 17.0408 28.8462 17.367 28.6495 17.7692C28.4525 18.1662 28.3646 18.6014 28.3857 19.0749L28.4946 21.0328C28.5275 21.6257 28.6652 22.1318 28.9076 22.5513C29.1553 22.9705 29.4884 23.2858 29.907 23.4973C30.3257 23.7087 30.8132 23.799 31.3696 23.768C31.7389 23.7475 32.074 23.6767 32.375 23.5556C32.676 23.4345 32.93 23.2639 33.1368 23.0438C33.3437 22.8236 33.4959 22.5595 33.5935 22.2516L36.6782 22.2835C36.5633 23.0306 36.2793 23.6932 35.8263 24.2713C35.3783 24.844 34.7831 25.3048 34.041 25.6538C33.3037 25.9974 32.441 26.1967 31.453 26.2516ZM42.537 25.6274C41.7725 25.6699 41.0839 25.5751 40.4711 25.3432C39.8581 25.106 39.3627 24.7345 38.9851 24.2287C38.6124 23.7173 38.404 23.0664 38.3601 22.276C38.323 21.6104 38.4142 21.0445 38.6334 20.5785C38.8527 20.1125 39.1652 19.73 39.5711 19.4309C39.977 19.1319 40.4439 18.8973 40.9717 18.7271C41.5047 18.5566 42.0661 18.4262 42.6557 18.3361C43.3485 18.2245 43.9064 18.1257 44.3293 18.0396C44.752 17.9482 45.0559 17.8322 45.2411 17.6915C45.4263 17.5508 45.5118 17.3531 45.4976 17.0982L45.495 17.0514C45.4676 16.5574 45.2903 16.1839 44.9632 15.9308C44.6414 15.6774 44.197 15.5665 43.6302 15.5981C43.0322 15.6313 42.5637 15.7904 42.2248 16.0753C41.8857 16.3549 41.6699 16.6956 41.5775 17.0972L38.4902 17.0185C38.6057 16.2818 38.8775 15.6355 39.3057 15.0796C39.7335 14.5185 40.3009 14.0748 41.0078 13.7486C41.7197 13.4169 42.554 13.2245 43.5109 13.1712C44.1765 13.1342 44.8179 13.1768 45.435 13.299C46.0573 13.4209 46.6142 13.6325 47.1056 13.9338C47.6023 14.2348 48.0027 14.635 48.307 15.1345C48.6109 15.6288 48.7827 16.2322 48.8224 16.9446L49.2718 25.0259L46.1204 25.2012L46.028 23.5397L45.9344 23.5449C45.7628 23.93 45.5238 24.2745 45.2172 24.5785C44.9104 24.8772 44.5353 25.1198 44.0919 25.3061C43.6481 25.4873 43.1298 25.5944 42.537 25.6274ZM43.3611 23.2811C43.8499 23.2539 44.2762 23.1337 44.6399 22.9205C45.0033 22.702 45.2824 22.4205 45.4771 22.0758C45.6718 21.7311 45.7575 21.3482 45.734 20.927L45.6633 19.6555C45.5631 19.7289 45.4235 19.7992 45.2447 19.8666C45.0708 19.9284 44.8733 19.9889 44.6523 20.0482C44.431 20.1022 44.2096 20.1536 43.988 20.2025C43.7661 20.2461 43.5649 20.286 43.3843 20.3221C42.9975 20.401 42.6619 20.511 42.3776 20.652C42.0934 20.793 41.8766 20.9746 41.7272 21.1967C41.5776 21.4137 41.5114 21.6782 41.5288 21.9902C41.5539 22.4427 41.737 22.7794 42.0779 23.0004C42.4237 23.2159 42.8515 23.3094 43.3611 23.2811ZM51.8498 24.8825L51.1835 12.901L54.4051 12.7219L54.5213 14.8124L54.6462 14.8055C54.8232 14.0497 55.1586 13.4676 55.6523 13.0594C56.1457 12.6459 56.7279 12.4206 57.3987 12.3832C57.5651 12.374 57.7451 12.3744 57.9387 12.3845C58.1322 12.3946 58.3028 12.4138 58.4505 12.4421L58.6145 15.3907C58.4558 15.3526 58.2377 15.323 57.9601 15.3019C57.6824 15.2808 57.4292 15.2766 57.2004 15.2894C56.7116 15.3166 56.2807 15.4475 55.9077 15.6821C55.5397 15.9112 55.2542 16.2192 55.0514 16.606C54.8539 16.9926 54.7687 17.4303 54.7958 17.9191L55.1728 24.6977L51.8498 24.8825ZM68.2232 28.4789C67.802 28.5023 67.4049 28.4905 67.0319 28.4434C66.6644 28.4013 66.3583 28.3374 66.1136 28.2519L66.7245 25.7297C67.1212 25.8277 67.4758 25.8731 67.7884 25.8662C68.1062 25.859 68.3752 25.771 68.5953 25.6022C68.8207 25.4332 68.9957 25.1574 69.1205 24.7749L69.2873 24.257L64.3038 12.1714L67.7985 11.977L70.7683 20.638L70.8931 20.631L72.9077 11.6929L76.4257 11.4972L72.5072 25.0326C72.3195 25.6898 72.0465 26.2684 71.6883 26.7682C71.3355 27.273 70.8752 27.6715 70.3072 27.9639C69.7395 28.2615 69.0449 28.4332 68.2232 28.4789ZM83.833 23.3386C82.6213 23.406 81.5591 23.2068 80.6464 22.7411C79.7387 22.27 79.0198 21.5849 78.4899 20.6858C77.9597 19.7816 77.6605 18.7158 77.5923 17.4886C77.5234 16.2509 77.7025 15.1559 78.1294 14.2037C78.5561 13.2462 79.1945 12.4856 80.0448 11.9219C80.8999 11.3527 81.9333 11.0344 83.145 10.9671C84.3566 10.8997 85.4163 11.1016 86.3241 11.5727C87.2368 12.0384 87.9582 12.7233 88.4884 13.6276C89.0183 14.5266 89.3177 15.595 89.3865 16.8327C89.4548 18.0599 89.2756 19.1523 88.8489 20.1097C88.422 21.062 87.7809 21.8227 86.9258 22.3919C86.0756 22.9556 85.0446 23.2712 83.833 23.3386ZM83.7054 20.7636C84.2567 20.7329 84.7082 20.5513 85.0601 20.2187C85.4116 19.881 85.6659 19.4339 85.8227 18.8774C85.9847 18.3207 86.0464 17.6939 86.0076 16.9971C85.9689 16.3003 85.8381 15.6842 85.6153 15.1488C85.3978 14.6132 85.0955 14.1971 84.7087 13.9004C84.3218 13.6037 83.8528 13.4707 83.3015 13.5013C82.7451 13.5323 82.2859 13.7169 81.9239 14.0552C81.5671 14.3933 81.3077 14.8407 81.1457 15.3974C80.9888 15.9539 80.9298 16.5805 80.9686 17.2773C81.0073 17.9742 81.1355 18.5904 81.353 19.126C81.5758 19.6614 81.8832 20.0772 82.2753 20.3736C82.6723 20.6645 83.149 20.7945 83.7054 20.7636ZM99.2775 17.1276L98.8949 10.2476L102.218 10.0628L102.884 22.0443L99.6939 22.2217L99.5728 20.0454L99.448 20.0524C99.2167 20.7694 98.7982 21.3587 98.1927 21.8201C97.5924 22.2812 96.8424 22.5368 95.9427 22.5869C95.1419 22.6314 94.4271 22.4886 93.7984 22.1584C93.1698 21.8282 92.6652 21.3372 92.2846 20.6855C91.9093 20.0334 91.693 19.2395 91.6358 18.3038L91.2115 10.6749L94.5345 10.4901L94.9258 17.5261C94.9703 18.2331 95.1912 18.7816 95.5885 19.1716C95.9857 19.5616 96.499 19.7391 97.1282 19.7041C97.5287 19.6818 97.898 19.57 98.2363 19.3686C98.5743 19.162 98.8398 18.8708 99.0328 18.4949C99.2309 18.1187 99.3125 17.663 99.2775 17.1276Z" fill="#410E0B"/>
<path d="M22.363 10.4977L27.3553 10.22C27.202 7.46286 24.8425 5.35204 22.0854 5.50538L22.363 10.4977ZM23.2514 26.473L23.5291 31.4653C26.2862 31.3119 28.3971 28.9525 28.2437 26.1953L23.2514 26.473ZM20.3341 26.6352L16.3853 29.7023C17.3925 30.9991 18.9722 31.7187 20.6117 31.6275L20.3341 26.6352ZM12.8247 16.967L16.7735 13.8999C15.7663 12.6031 14.1865 11.8835 12.5471 11.9747L12.8247 16.967ZM12.7077 16.9735L12.4301 11.9812C9.67289 12.1345 7.56207 14.494 7.71541 17.2511L12.7077 16.9735ZM13.2669 27.0283L13.5445 32.0205C16.3017 31.8672 18.4125 29.5078 18.2592 26.7506L13.2669 27.0283ZM9.88928 27.2161L4.89699 27.4937C5.05033 30.2509 7.40976 32.3617 10.1669 32.2084L9.88928 27.2161ZM9.00084 11.2408L8.7232 6.2485C5.96604 6.40183 3.85522 8.76126 4.00855 11.5184L9.00084 11.2408ZM11.965 11.0759L15.924 8.02201C14.9175 6.71722 13.3327 5.99215 11.6874 6.08365L11.965 11.0759ZM19.4193 20.7394L15.4604 23.7933C16.4669 25.0981 18.0516 25.8232 19.697 25.7317L19.4193 20.7394ZM19.5598 20.7316L19.8374 25.7239C22.5946 25.5706 24.7054 23.2111 24.552 20.454L19.5598 20.7316ZM19.001 10.6846L18.7234 5.69235C15.9662 5.84569 13.8554 8.20511 14.0087 10.9623L19.001 10.6846ZM22.363 10.4977L17.3707 10.7753L18.2592 26.7506L23.2514 26.473L28.2437 26.1953L27.3553 10.22L22.363 10.4977ZM23.2514 26.473L22.9738 21.4807L20.0564 21.6429L20.3341 26.6352L20.6117 31.6275L23.5291 31.4653L23.2514 26.473ZM20.3341 26.6352L24.2829 23.5682L16.7735 13.8999L12.8247 16.967L8.87589 20.034L16.3853 29.7023L20.3341 26.6352ZM12.8247 16.967L12.5471 11.9747L12.4301 11.9812L12.7077 16.9735L12.9853 21.9658L13.1023 21.9593L12.8247 16.967ZM12.7077 16.9735L7.71541 17.2511L8.27459 27.3059L13.2669 27.0283L18.2592 26.7506L17.7 16.6958L12.7077 16.9735ZM13.2669 27.0283L12.9892 22.036L9.61164 22.2238L9.88928 27.2161L10.1669 32.2084L13.5445 32.0205L13.2669 27.0283ZM9.88928 27.2161L14.8816 26.9385L13.9931 10.9631L9.00084 11.2408L4.00855 11.5184L4.89699 27.4937L9.88928 27.2161ZM9.00084 11.2408L9.27848 16.2331L12.2426 16.0682L11.965 11.0759L11.6874 6.08365L8.7232 6.2485L9.00084 11.2408ZM11.965 11.0759L8.00603 14.1299L15.4604 23.7933L19.4193 20.7394L23.3783 17.6855L15.924 8.02201L11.965 11.0759ZM19.4193 20.7394L19.697 25.7317L19.8374 25.7239L19.5598 20.7316L19.2821 15.7393L19.1417 15.7471L19.4193 20.7394ZM19.5598 20.7316L24.552 20.454L23.9933 10.407L19.001 10.6846L14.0087 10.9623L14.5675 21.0093L19.5598 20.7316ZM19.001 10.6846L19.2786 15.6769L22.6406 15.49L22.363 10.4977L22.0854 5.50538L18.7234 5.69235L19.001 10.6846ZM28.2288 25.6798L25.9958 30.1534C26.0061 30.1586 26.0165 30.1638 26.0269 30.1689L28.2288 25.6798ZM26.0662 23.6561L21.7587 26.195L21.7646 26.2049L26.0662 23.6561ZM25.7031 17.1271L21.136 15.092L21.136 15.092L25.7031 17.1271ZM27.6024 14.8384L24.8103 10.6906L24.7994 10.698L27.6024 14.8384ZM32.8611 14.1469L31.3722 18.9201C31.3868 18.9246 31.4014 18.9291 31.416 18.9335L32.8611 14.1469ZM34.7181 15.1782L31.4035 18.9217C31.4099 18.9273 31.4162 18.9329 31.4226 18.9384L34.7181 15.1782ZM36.0253 17.0147L31.4468 19.0242L31.4513 19.0344L36.0253 17.0147ZM36.6534 20.5713L36.931 25.5635C39.6882 25.4102 41.799 23.0508 41.6457 20.2936L36.6534 20.5713ZM26.5362 21.1339L21.5439 21.4115C21.6973 24.1687 24.0567 26.2795 26.8139 26.1262L26.5362 21.1339ZM26.4217 19.0746L26.1441 14.0823C23.3869 14.2356 21.2761 16.5951 21.4294 19.3522L26.4217 19.0746ZM33.4109 18.6859L33.6885 23.6782C36.4457 23.5248 38.5565 21.1654 38.4032 18.4083L33.4109 18.6859ZM33.0282 17.4318L28.8149 20.1241L28.8149 20.1241L33.0282 17.4318ZM32.1142 16.6141L29.8306 21.0622C29.8555 21.0749 29.8805 21.0875 29.9056 21.0999L32.1142 16.6141ZM29.5027 16.7906L32.2928 20.9398C32.2983 20.9361 32.3038 20.9323 32.3093 20.9286L29.5027 16.7906ZM28.6495 17.7692L33.1283 19.9919C33.1325 19.9834 33.1368 19.9748 33.141 19.9662L28.6495 17.7692ZM28.3857 19.0749L23.3906 19.2977C23.3915 19.316 23.3924 19.3343 23.3934 19.3525L28.3857 19.0749ZM28.9076 22.5513L24.5785 25.0531C24.5865 25.0669 24.5945 25.0806 24.6026 25.0943L28.9076 22.5513ZM32.375 23.5556L30.5094 18.9167L30.5093 18.9167L32.375 23.5556ZM33.1368 23.0438L29.4928 19.6201L29.4928 19.6202L33.1368 23.0438ZM33.5935 22.2516L33.6452 17.2518C31.4469 17.2291 29.4916 18.645 28.8273 20.7406L33.5935 22.2516ZM36.6782 22.2835L41.6201 23.0437C41.8405 21.6108 41.4281 20.1527 40.4898 19.0475C39.5515 17.9422 38.1796 17.2987 36.7299 17.2837L36.6782 22.2835ZM35.8263 24.2713L31.8905 21.1876L31.8885 21.1902L35.8263 24.2713ZM34.041 25.6538L36.1528 30.186C36.1582 30.1835 36.1635 30.181 36.1689 30.1785L34.041 25.6538ZM31.453 26.2516L31.1753 21.2593C30.621 21.2901 30.4324 21.1915 30.4306 21.1906L28.2288 25.6798L26.0269 30.1689C27.8592 31.0675 29.8201 31.3501 31.7306 31.2439L31.453 26.2516ZM28.2288 25.6798L30.4617 21.2061C30.4403 21.1954 30.4293 21.1881 30.4254 21.1854C30.4217 21.1828 30.4206 21.1818 30.4204 21.1815C30.4201 21.1813 30.4162 21.1777 30.4087 21.1683C30.4011 21.1588 30.3869 21.1396 30.3678 21.1073L26.0662 23.6561L21.7646 26.2049C22.7743 27.9091 24.2061 29.2601 25.9958 30.1534L28.2288 25.6798ZM26.0662 23.6561L30.3736 21.1172C30.3269 21.0379 30.1934 20.7682 30.1582 20.1344L25.1659 20.412L20.1736 20.6897C20.2789 22.5831 20.7457 24.4762 21.7587 26.1949L26.0662 23.6561ZM25.1659 20.412L30.1582 20.1344C30.126 19.5551 30.2199 19.275 30.2701 19.1623L25.7031 17.1271L21.136 15.092C20.3329 16.8941 20.0687 18.804 20.1736 20.6897L25.1659 20.412ZM25.7031 17.1271L30.2701 19.1623C30.3083 19.0766 30.3368 19.0404 30.3456 19.0299C30.3536 19.0202 30.3678 19.0043 30.4053 18.9789L27.6024 14.8384L24.7994 10.698C23.1597 11.808 21.9291 13.3122 21.136 15.092L25.7031 17.1271ZM27.6024 14.8384L30.3944 18.9863C30.4018 18.9813 30.4267 18.9649 30.4906 18.9448C30.5586 18.9235 30.6909 18.8919 30.91 18.8798L30.6323 13.8875L30.3547 8.89518C28.4229 9.00262 26.5119 9.54523 24.8103 10.6906L27.6024 14.8384ZM30.6323 13.8875L30.91 18.8798C31.1551 18.8661 31.2954 18.8961 31.3722 18.9201L32.8611 14.1469L34.3501 9.37377C33.036 8.96385 31.6904 8.8209 30.3547 8.89518L30.6323 13.8875ZM32.8611 14.1469L31.416 18.9335C31.4216 18.9352 31.4256 18.9366 31.428 18.9375C31.4305 18.9383 31.4317 18.9388 31.4317 18.9389C31.4318 18.9389 31.4309 18.9385 31.4293 18.9377C31.4277 18.937 31.4256 18.9359 31.4231 18.9345C31.4178 18.9316 31.4127 18.9283 31.4083 18.9252C31.4039 18.9221 31.4023 18.9206 31.4035 18.9217L34.7181 15.1782L38.0327 11.4348C36.9442 10.471 35.6845 9.77643 34.3063 9.36032L32.8611 14.1469ZM34.7181 15.1782L31.4226 18.9384C31.3905 18.9103 31.3765 18.8907 31.3785 18.8935C31.3816 18.8979 31.4081 18.9359 31.4468 19.0242L36.0253 17.0147L40.6037 15.0053C40.02 13.6752 39.1759 12.4366 38.0137 11.418L34.7181 15.1782ZM36.0253 17.0147L31.4513 19.0344C31.483 19.1061 31.5789 19.3703 31.6104 19.9362L36.6026 19.6586L41.5949 19.381C41.513 17.9084 41.224 16.41 40.5992 14.995L36.0253 17.0147ZM36.6026 19.6586L31.6104 19.9362L31.6611 20.8489L36.6534 20.5713L41.6457 20.2936L41.5949 19.381L36.6026 19.6586ZM36.6534 20.5713L36.3758 15.579L26.2586 16.1416L26.5362 21.1339L26.8139 26.1262L36.931 25.5635L36.6534 20.5713ZM26.5362 21.1339L31.5285 20.8563L31.414 18.797L26.4217 19.0746L21.4294 19.3522L21.5439 21.4115L26.5362 21.1339ZM26.4217 19.0746L26.6993 24.0669L33.6885 23.6782L33.4109 18.6859L33.1333 13.6936L26.1441 14.0823L26.4217 19.0746ZM33.4109 18.6859L38.4032 18.4083C38.3351 17.184 37.9901 15.9111 37.2414 14.7395L33.0282 17.4318L28.8149 20.1241C28.5233 19.6678 28.4335 19.231 28.4186 18.9635L33.4109 18.6859ZM33.0282 17.4318L37.2414 14.7395C36.521 13.6121 35.523 12.7192 34.3227 12.1283L32.1142 16.6141L29.9056 21.0999C29.4669 20.8839 29.0782 20.5362 28.8149 20.1241L33.0282 17.4318ZM32.1142 16.6141L34.3977 12.166C33.1218 11.511 31.7858 11.3038 30.5473 11.3727L30.8249 16.365L31.1025 21.3573C30.8312 21.3723 30.3548 21.3313 29.8306 21.0622L32.1142 16.6141ZM30.8249 16.365L30.5473 11.3727C29.2395 11.4454 27.903 11.8341 26.6962 12.6526L29.5027 16.7906L32.3093 20.9286C31.8565 21.2357 31.4015 21.3406 31.1025 21.3573L30.8249 16.365ZM29.5027 16.7906L26.7127 12.6415C25.6131 13.3809 24.7413 14.3799 24.1581 15.5722L28.6495 17.7692L33.141 19.9662C32.9512 20.3541 32.6482 20.7008 32.2928 20.9398L29.5027 16.7906ZM28.6495 17.7692L24.1708 15.5464C23.5713 16.7543 23.3345 18.0391 23.3906 19.2977L28.3857 19.0749L33.3807 18.8521C33.3946 19.1637 33.3337 19.578 33.1283 19.9919L28.6495 17.7692ZM28.3857 19.0749L23.3934 19.3525L23.5023 21.3105L28.4946 21.0328L33.4869 20.7552L33.378 18.7973L28.3857 19.0749ZM28.4946 21.0328L23.5023 21.3105C23.5691 22.5126 23.865 23.8183 24.5785 25.0531L28.9076 22.5513L33.2367 20.0495C33.4655 20.4453 33.4859 20.7387 33.4869 20.7552L28.4946 21.0328ZM28.9076 22.5513L24.6026 25.0943C25.3168 26.3033 26.3475 27.301 27.6528 27.9602L29.907 23.4973L32.1613 19.0343C32.3747 19.142 32.5871 19.288 32.7804 19.4709C32.9726 19.6529 33.1139 19.8411 33.2127 20.0083L28.9076 22.5513ZM29.907 23.4973L27.6528 27.9602C28.9901 28.6357 30.3806 28.8308 31.6473 28.7603L31.3696 23.768L31.092 18.7757C31.2458 18.7672 31.6612 18.7817 32.1613 19.0343L29.907 23.4973ZM31.3696 23.768L31.6473 28.7603C32.4866 28.7136 33.3679 28.5455 34.2407 28.1945L32.375 23.5556L30.5093 18.9167C30.7801 18.8078 30.9911 18.7813 31.092 18.7757L31.3696 23.768ZM32.375 23.5556L34.2407 28.1945C35.1649 27.8228 36.0404 27.2555 36.7808 26.4674L33.1368 23.0438L29.4928 19.6202C29.8196 19.2723 30.1872 19.0463 30.5094 18.9167L32.375 23.5556ZM33.1368 23.0438L36.7808 26.4674C37.5354 25.6643 38.052 24.7334 38.3598 23.7625L33.5935 22.2516L28.8273 20.7406C28.9398 20.3857 29.152 19.9829 29.4928 19.6201L33.1368 23.0438ZM33.5935 22.2516L33.5419 27.2513L36.6265 27.2832L36.6782 22.2835L36.7299 17.2837L33.6452 17.2518L33.5935 22.2516ZM36.6782 22.2835L31.7363 21.5232C31.7398 21.5009 31.7516 21.4452 31.7832 21.3713C31.8152 21.2967 31.8547 21.2333 31.8905 21.1876L35.8263 24.2713L39.7621 27.3551C40.7601 26.0813 41.3786 24.613 41.6201 23.0437L36.6782 22.2835ZM35.8263 24.2713L31.8885 21.1902C31.9073 21.1661 31.9262 21.1452 31.9437 21.1278C31.9612 21.1105 31.9749 21.0992 31.9827 21.0931C31.9989 21.0806 31.9823 21.0967 31.9131 21.1292L34.041 25.6538L36.1689 30.1785C37.5275 29.5395 38.7754 28.6162 39.7642 27.3525L35.8263 24.2713ZM34.041 25.6538L31.9291 21.1217C31.8785 21.1453 31.6621 21.2322 31.1753 21.2593L31.453 26.2516L31.7306 31.2439C33.22 31.1611 34.7289 30.8495 36.1528 30.186L34.041 25.6538ZM40.4711 25.3432L38.6672 30.0064C38.6785 30.0108 38.6898 30.0151 38.7011 30.0194L40.4711 25.3432ZM38.9851 24.2287L34.9445 27.1738C34.9557 27.1892 34.967 27.2045 34.9784 27.2197L38.9851 24.2287ZM38.6334 20.5785L34.1091 18.4499L34.1091 18.4499L38.6334 20.5785ZM39.5711 19.4309L36.6054 15.4055L36.6054 15.4055L39.5711 19.4309ZM40.9717 18.7271L39.4485 13.9647L39.4373 13.9683L40.9717 18.7271ZM42.6557 18.3361L43.4116 23.2786C43.4246 23.2766 43.4376 23.2746 43.4506 23.2725L42.6557 18.3361ZM44.3293 18.0396L45.3269 22.939C45.3464 22.9351 45.3658 22.931 45.3853 22.9268L44.3293 18.0396ZM45.2411 17.6915L42.2161 13.7104L42.2161 13.7104L45.2411 17.6915ZM44.9632 15.9308L41.8706 19.8596C41.8815 19.8682 41.8925 19.8768 41.9034 19.8852L44.9632 15.9308ZM42.2248 16.0753L45.4059 19.9328C45.4181 19.9228 45.4302 19.9127 45.4423 19.9025L42.2248 16.0753ZM41.5775 17.0972L41.4501 22.0955C43.8264 22.1561 45.9169 20.5352 46.4501 18.2186L41.5775 17.0972ZM38.4902 17.0185L33.5506 16.2439C33.3276 17.6657 33.7281 19.1145 34.6496 20.22C35.571 21.3254 36.9241 21.9802 38.3628 22.0168L38.4902 17.0185ZM39.3057 15.0796L43.267 18.1305C43.2719 18.1241 43.2768 18.1177 43.2816 18.1113L39.3057 15.0796ZM41.0078 13.7486L43.1028 18.2886C43.1084 18.286 43.1141 18.2834 43.1197 18.2807L41.0078 13.7486ZM45.435 13.299L44.464 18.2038L44.474 18.2058L45.435 13.299ZM47.1056 13.9338L44.4923 18.1964C44.4995 18.2009 44.5068 18.2053 44.5141 18.2097L47.1056 13.9338ZM48.307 15.1345L44.0368 17.7355C44.0404 17.7416 44.0441 17.7476 44.0478 17.7536L48.307 15.1345ZM49.2718 25.0259L49.5494 30.0182C52.3066 29.8648 54.4174 27.5054 54.2641 24.7483L49.2718 25.0259ZM46.1204 25.2012L41.1281 25.4788C41.2815 28.236 43.6409 30.3468 46.398 30.1934L46.1204 25.2012ZM46.028 23.5397L51.0203 23.262C50.867 20.5049 48.5075 18.394 45.7504 18.5474L46.028 23.5397ZM45.9344 23.5449L45.6568 18.5526C43.7857 18.6566 42.1299 19.7982 41.3672 21.51L45.9344 23.5449ZM45.2172 24.5785L48.7054 28.1607C48.7163 28.1501 48.7271 28.1395 48.7379 28.1288L45.2172 24.5785ZM44.0919 25.3061L45.9818 29.9352C45.9976 29.9288 46.0133 29.9222 46.029 29.9156L44.0919 25.3061ZM44.6399 22.9205L47.1687 27.2339C47.1844 27.2247 47.2 27.2154 47.2156 27.206L44.6399 22.9205ZM45.4771 22.0758L41.1237 19.6166L41.1237 19.6166L45.4771 22.0758ZM45.6633 19.6555L50.6556 19.3778C50.5538 17.5471 49.4581 15.919 47.8005 15.1353C46.1429 14.3515 44.1893 14.538 42.7098 15.621L45.6633 19.6555ZM45.2447 19.8666L46.9197 24.5776C46.9487 24.5673 46.9776 24.5568 47.0064 24.5459L45.2447 19.8666ZM44.6523 20.0482L45.8384 24.9054C45.8746 24.8966 45.9108 24.8873 45.9468 24.8777L44.6523 20.0482ZM43.988 20.2025L44.9529 25.1085C44.9901 25.1012 45.0272 25.0934 45.0642 25.0853L43.988 20.2025ZM43.3843 20.3221L42.4035 15.4193C42.3974 15.4205 42.3913 15.4217 42.3852 15.423L43.3843 20.3221ZM42.3776 20.652L44.5994 25.1312L44.5994 25.1312L42.3776 20.652ZM41.7272 21.1967L45.8433 24.0354C45.8545 24.0191 45.8657 24.0026 45.8768 23.9862L41.7272 21.1967ZM42.0779 23.0004L39.3582 27.196C39.3832 27.2122 39.4083 27.2281 39.4336 27.2439L42.0779 23.0004ZM42.537 25.6274L42.2593 20.6351C42.1654 20.6403 42.125 20.6344 42.1285 20.6348C42.1303 20.6351 42.1421 20.6368 42.1623 20.6419C42.1826 20.647 42.2094 20.655 42.2412 20.667L40.4711 25.3432L38.7011 30.0194C40.0677 30.5367 41.4693 30.6945 42.8146 30.6196L42.537 25.6274ZM40.4711 25.3432L42.275 20.6799C42.3694 20.7164 42.4991 20.7812 42.6398 20.8867C42.7816 20.993 42.9005 21.1154 42.9918 21.2376L38.9851 24.2287L34.9784 27.2197C35.9424 28.5111 37.2154 29.4448 38.6672 30.0064L40.4711 25.3432ZM38.9851 24.2287L43.0256 21.2835C43.3479 21.7257 43.3562 22.0678 43.3524 21.9984L38.3601 22.276L33.3678 22.5536C33.4518 24.0651 33.8768 25.709 34.9445 27.1738L38.9851 24.2287ZM38.3601 22.276L43.3524 21.9984C43.3482 21.9243 43.3805 22.2335 43.1577 22.7071L38.6334 20.5785L34.1091 18.4499C33.4478 19.8556 33.2979 21.2965 33.3678 22.5536L38.3601 22.276ZM38.6334 20.5785L43.1577 22.7071C43.1005 22.8288 43.0177 22.9668 42.9041 23.1058C42.7902 23.2452 42.6638 23.3629 42.5369 23.4564L39.5711 19.4309L36.6054 15.4055C35.5156 16.2084 34.6742 17.2488 34.1091 18.4499L38.6334 20.5785ZM39.5711 19.4309L42.5369 23.4564C42.5045 23.4803 42.4805 23.4934 42.4709 23.4982C42.4617 23.5029 42.4715 23.497 42.5062 23.4858L40.9717 18.7271L39.4373 13.9683C38.447 14.2877 37.4869 14.756 36.6054 15.4055L39.5711 19.4309ZM40.9717 18.7271L42.4949 23.4894C42.7615 23.4041 43.0651 23.3316 43.4116 23.2786L42.6557 18.3361L41.8999 13.3935C41.067 13.5209 40.248 13.709 39.4485 13.9647L40.9717 18.7271ZM42.6557 18.3361L43.4506 23.2725C44.175 23.1558 44.8084 23.0446 45.3269 22.939L44.3293 18.0396L43.3318 13.1401C43.0044 13.2068 42.522 13.2932 41.8608 13.3997L42.6557 18.3361ZM44.3293 18.0396L45.3853 22.9268C46.0115 22.7915 47.1911 22.4895 48.2661 21.6726L45.2411 17.6915L42.2161 13.7104C42.6198 13.4037 42.961 13.2625 43.0912 13.2128C43.2382 13.1567 43.3125 13.1439 43.2734 13.1523L44.3293 18.0396ZM45.2411 17.6915L48.2661 21.6726C49.9183 20.4172 50.5857 18.5436 50.4899 16.8206L45.4976 17.0982L40.5053 17.3759C40.4772 16.8704 40.5375 16.187 40.8547 15.4534C41.18 14.7011 41.6803 14.1175 42.2161 13.7104L45.2411 17.6915ZM45.4976 17.0982L50.4899 16.8206L50.4873 16.7738L45.495 17.0514L40.5027 17.3291L40.5053 17.3759L45.4976 17.0982ZM45.495 17.0514L50.4873 16.7738C50.3967 15.144 49.7229 13.2917 48.023 11.9763L44.9632 15.9308L41.9034 19.8852C41.4458 19.5311 41.0725 19.0674 40.8243 18.5444C40.5863 18.0428 40.5181 17.6045 40.5027 17.3291L45.495 17.0514ZM44.9632 15.9308L48.0558 12.002C46.4635 10.7485 44.6657 10.5327 43.3526 10.6058L43.6302 15.5981L43.9078 20.5903C43.7284 20.6003 42.8193 20.6064 41.8706 19.8596L44.9632 15.9308ZM43.6302 15.5981L43.3526 10.6058C42.051 10.6782 40.4228 11.0581 39.0074 12.248L42.2248 16.0753L45.4423 19.9025C44.7046 20.5227 44.0133 20.5845 43.9078 20.5903L43.6302 15.5981ZM42.2248 16.0753L39.0438 12.2177C37.9154 13.1482 37.0614 14.4266 36.7049 15.9757L41.5775 17.0972L46.4501 18.2186C46.3723 18.5566 46.2338 18.8984 46.0324 19.2163C45.833 19.531 45.6075 19.7666 45.4059 19.9328L42.2248 16.0753ZM41.5775 17.0972L41.7049 12.0988L38.6176 12.0201L38.4902 17.0185L38.3628 22.0168L41.4501 22.0955L41.5775 17.0972ZM38.4902 17.0185L43.4298 17.793C43.4289 17.7993 43.4203 17.8468 43.3897 17.9197C43.3584 17.994 43.3156 18.0673 43.267 18.1305L39.3057 15.0796L35.3444 12.0287C34.3721 13.291 33.7876 14.7321 33.5506 16.2439L38.4902 17.0185ZM39.3057 15.0796L43.2816 18.1113C43.2314 18.1772 43.1774 18.2293 43.1319 18.2649C43.0882 18.2991 43.0716 18.303 43.1028 18.2886L41.0078 13.7486L38.9129 9.20868C37.5434 9.84064 36.3018 10.773 35.3297 12.0478L39.3057 15.0796ZM41.0078 13.7486L43.1197 18.2807C43.1432 18.2698 43.3309 18.189 43.7885 18.1635L43.5109 13.1712L43.2332 8.17896C41.7772 8.25994 40.2961 8.56408 38.896 9.21652L41.0078 13.7486ZM43.5109 13.1712L43.7885 18.1635C44.0608 18.1484 44.2816 18.1677 44.464 18.2038L45.435 13.299L46.406 8.39417C45.3542 8.18594 44.2922 8.12007 43.2332 8.17896L43.5109 13.1712ZM45.435 13.299L44.474 18.2058C44.5251 18.2158 44.546 18.224 44.5435 18.2231C44.5425 18.2227 44.5368 18.2205 44.5274 18.2159C44.518 18.2113 44.506 18.2048 44.4923 18.1964L47.1056 13.9338L49.719 9.6711C48.6712 9.02867 47.5447 8.61717 46.396 8.3922L45.435 13.299ZM47.1056 13.9338L44.5141 18.2097C44.4284 18.1577 44.3344 18.0866 44.2438 17.9961C44.1533 17.9056 44.0849 17.8145 44.0368 17.7355L48.307 15.1345L52.5772 12.5335C51.8589 11.3542 50.8847 10.3775 49.6972 9.65782L47.1056 13.9338ZM48.307 15.1345L44.0478 17.7536C43.8277 17.3956 43.8261 17.1509 43.8301 17.2223L48.8224 16.9446L53.8146 16.667C53.7394 15.3134 53.3942 13.862 52.5662 12.5155L48.307 15.1345ZM48.8224 16.9446L43.8301 17.2223L44.2795 25.3035L49.2718 25.0259L54.2641 24.7483L53.8146 16.667L48.8224 16.9446ZM49.2718 25.0259L48.9941 20.0336L45.8428 20.2089L46.1204 25.2012L46.398 30.1934L49.5494 30.0182L49.2718 25.0259ZM46.1204 25.2012L51.1127 24.9235L51.0203 23.262L46.028 23.5397L41.0357 23.8173L41.1281 25.4788L46.1204 25.2012ZM46.028 23.5397L45.7504 18.5474L45.6568 18.5526L45.9344 23.5449L46.212 28.5372L46.3056 28.5319L46.028 23.5397ZM45.9344 23.5449L41.3672 21.51C41.4537 21.3159 41.5741 21.1496 41.6966 21.0281L45.2172 24.5785L48.7379 28.1288C49.4734 27.3995 50.0719 26.5441 50.5016 25.5797L45.9344 23.5449ZM45.2172 24.5785L41.729 20.9962C41.9223 20.808 42.0922 20.7229 42.1547 20.6967L44.0919 25.3061L46.029 29.9156C46.9784 29.5166 47.8986 28.9464 48.7054 28.1607L45.2172 24.5785ZM44.0919 25.3061L42.2019 20.6771C42.2916 20.6405 42.3482 20.6279 42.3588 20.6257C42.3687 20.6237 42.3384 20.6307 42.2593 20.6351L42.537 25.6274L42.8146 30.6196C43.8343 30.5629 44.9186 30.3693 45.9818 29.9352L44.0919 25.3061ZM43.3611 23.2811L43.6387 28.2734C44.7931 28.2092 46.0164 27.9094 47.1687 27.2339L44.6399 22.9205L42.1112 18.6071C42.5359 18.358 42.9068 18.2986 43.0835 18.2888L43.3611 23.2811ZM44.6399 22.9205L47.2156 27.206C48.2651 26.5753 49.1808 25.6852 49.8305 24.535L45.4771 22.0758L41.1237 19.6166C41.384 19.1558 41.7416 18.8288 42.0642 18.635L44.6399 22.9205ZM45.4771 22.0758L49.8305 24.535C50.5268 23.3025 50.7992 21.9595 50.7263 20.6493L45.734 20.927L40.7417 21.2046C40.7157 20.7368 40.8168 20.1598 41.1237 19.6166L45.4771 22.0758ZM45.734 20.927L50.7263 20.6493L50.6556 19.3778L45.6633 19.6555L40.671 19.9331L40.7417 21.2046L45.734 20.927ZM45.6633 19.6555L42.7098 15.621C42.9296 15.4601 43.1162 15.3573 43.2324 15.2987C43.3522 15.2383 43.4408 15.2031 43.483 15.1872L45.2447 19.8666L47.0064 24.5459C47.4081 24.3947 48.0097 24.1344 48.6168 23.6899L45.6633 19.6555ZM45.2447 19.8666L43.5697 15.1555C43.5464 15.1638 43.4794 15.186 43.3578 15.2186L44.6523 20.0482L45.9468 24.8777C46.2672 24.7918 46.5952 24.693 46.9197 24.5776L45.2447 19.8666ZM44.6523 20.0482L43.4662 15.1909C43.2813 15.236 43.0965 15.279 42.9118 15.3197L43.988 20.2025L45.0642 25.0853C45.3226 25.0283 45.5807 24.9684 45.8384 24.9054L44.6523 20.0482ZM43.988 20.2025L43.0231 15.2965C42.797 15.3409 42.5904 15.3819 42.4035 15.4193L43.3843 20.3221L44.3652 25.225C44.5394 25.1901 44.7352 25.1513 44.9529 25.1085L43.988 20.2025ZM43.3843 20.3221L42.3852 15.423C41.6729 15.5682 40.9086 15.7994 40.1559 16.1727L42.3776 20.652L44.5994 25.1312C44.5043 25.1784 44.4344 25.2037 44.3994 25.2152C44.3644 25.2267 44.357 25.2267 44.3835 25.2213L43.3843 20.3221ZM42.3776 20.652L40.1559 16.1727C39.2379 16.628 38.2947 17.3406 37.5776 18.4073L41.7272 21.1967L45.8768 23.9862C45.4585 24.6085 44.9488 24.9579 44.5994 25.1312L42.3776 20.652ZM41.7272 21.1967L37.6112 18.358C36.7207 19.6492 36.4694 21.0617 36.5365 22.2679L41.5288 21.9902L46.5211 21.7126C46.5534 22.2948 46.4344 23.1782 45.8433 24.0354L41.7272 21.1967ZM41.5288 21.9902L36.5365 22.2679C36.6385 24.1019 37.5088 25.9971 39.3582 27.196L42.0779 23.0004L44.7976 18.8047C45.2834 19.1197 45.747 19.5856 46.0778 20.194C46.3986 20.7842 46.5 21.3331 46.5211 21.7126L41.5288 21.9902ZM42.0779 23.0004L39.4336 27.2439C40.8517 28.1276 42.3627 28.3444 43.6387 28.2734L43.3611 23.2811L43.0835 18.2888C43.3403 18.2745 43.9958 18.3041 44.7222 18.7568L42.0779 23.0004ZM51.8498 24.8825L46.8575 25.1602C47.0109 27.9173 49.3703 30.0281 52.1275 29.8748L51.8498 24.8825ZM51.1835 12.901L50.9059 7.90875C48.1487 8.06209 46.0379 10.4215 46.1912 13.1787L51.1835 12.901ZM54.4051 12.7219L59.3974 12.4442C59.244 9.68707 56.8846 7.57625 54.1274 7.72959L54.4051 12.7219ZM54.5213 14.8124L49.5291 15.09C49.6824 17.8472 52.0418 19.958 54.799 19.8047L54.5213 14.8124ZM54.6462 14.8055L54.9238 19.7977C57.1391 19.6745 59.0083 18.1062 59.5144 15.9459L54.6462 14.8055ZM55.6523 13.0594L58.8386 16.9127C58.8469 16.9058 58.8553 16.8988 58.8636 16.8918L55.6523 13.0594ZM57.9387 12.3845L58.1992 7.39131L58.1992 7.39131L57.9387 12.3845ZM58.4505 12.4421L63.4428 12.1645C63.3154 9.87368 61.6452 7.96355 59.3919 7.53155L58.4505 12.4421ZM58.6145 15.3907L57.4459 20.2522C58.9826 20.6216 60.6035 20.2427 61.8173 19.2302C63.031 18.2178 63.6945 16.6911 63.6067 15.1131L58.6145 15.3907ZM57.9601 15.3019L57.5817 20.2875L57.9601 15.3019ZM55.9077 15.6821L58.5502 19.9268C58.5568 19.9226 58.5634 19.9185 58.57 19.9143L55.9077 15.6821ZM55.0514 16.606L50.623 14.2847C50.615 14.2999 50.6071 14.3151 50.5993 14.3304L55.0514 16.606ZM55.1728 24.6977L55.4505 29.69C58.2076 29.5367 60.3184 27.1772 60.1651 24.4201L55.1728 24.6977ZM51.8498 24.8825L56.8421 24.6049L56.1758 12.6234L51.1835 12.901L46.1912 13.1787L46.8575 25.1602L51.8498 24.8825ZM51.1835 12.901L51.4611 17.8933L54.6827 17.7142L54.4051 12.7219L54.1274 7.72959L50.9059 7.90875L51.1835 12.901ZM54.4051 12.7219L49.4128 12.9995L49.5291 15.09L54.5213 14.8124L59.5136 14.5348L59.3974 12.4442L54.4051 12.7219ZM54.5213 14.8124L54.799 19.8047L54.9238 19.7977L54.6462 14.8055L54.3685 9.81317L54.2437 9.82011L54.5213 14.8124ZM54.6462 14.8055L59.5144 15.9459C59.5084 15.9714 59.4734 16.1063 59.3627 16.2985C59.2471 16.4991 59.0737 16.7183 58.8386 16.9127L55.6523 13.0594L52.4661 9.20611C50.964 10.4481 50.15 12.0767 49.778 13.665L54.6462 14.8055ZM55.6523 13.0594L58.8636 16.8918C58.7036 17.0259 58.5001 17.1517 58.2642 17.243C58.0306 17.3335 57.8244 17.3673 57.6764 17.3755L57.3987 12.3832L57.1211 7.39096C55.4232 7.48539 53.7994 8.08872 52.441 9.22694L55.6523 13.0594ZM57.3987 12.3832L57.6764 17.3755C57.6559 17.3767 57.6457 17.3766 57.6468 17.3766C57.6477 17.3766 57.658 17.3767 57.6781 17.3777L57.9387 12.3845L58.1992 7.39131C57.8545 7.37332 57.4928 7.37029 57.1211 7.39096L57.3987 12.3832ZM57.9387 12.3845L57.6781 17.3777C57.6876 17.3782 57.6782 17.378 57.6525 17.3751C57.6273 17.3723 57.5781 17.3659 57.509 17.3527L58.4505 12.4421L59.3919 7.53155C58.9661 7.44991 58.5597 7.41012 58.1992 7.39131L57.9387 12.3845ZM58.4505 12.4421L53.4582 12.7198L53.6222 15.6683L58.6145 15.3907L63.6067 15.1131L63.4428 12.1645L58.4505 12.4421ZM58.6145 15.3907L59.7831 10.5292C59.2463 10.4002 58.7245 10.3455 58.3385 10.3162L57.9601 15.3019L57.5817 20.2875C57.6466 20.2925 57.6697 20.2959 57.6596 20.2945C57.6533 20.2936 57.6326 20.2907 57.5997 20.2848C57.5674 20.279 57.5147 20.2687 57.4459 20.2522L58.6145 15.3907ZM57.9601 15.3019L58.3385 10.3162C57.8871 10.282 57.4107 10.2699 56.9228 10.2971L57.2004 15.2894L57.478 20.2817C57.4609 20.2826 57.4607 20.282 57.4795 20.2823C57.4982 20.2826 57.5318 20.2838 57.5817 20.2875L57.9601 15.3019ZM57.2004 15.2894L56.9228 10.2971C55.6835 10.366 54.4132 10.7152 53.2454 11.4498L55.9077 15.6821L58.57 19.9143C58.1482 20.1797 57.7397 20.2671 57.478 20.2817L57.2004 15.2894ZM55.9077 15.6821L53.2653 11.4374C52.1353 12.1408 51.236 13.1153 50.623 14.2847L55.0514 16.606L59.4799 18.9274C59.2725 19.3231 58.944 19.6816 58.5502 19.9268L55.9077 15.6821ZM55.0514 16.606L50.5993 14.3304C49.9494 15.602 49.7336 16.9393 49.8036 18.1968L54.7958 17.9191L59.7881 17.6415C59.8037 17.9213 59.7584 18.3832 59.5036 18.8817L55.0514 16.606ZM54.7958 17.9191L49.8036 18.1968L50.1805 24.9754L55.1728 24.6977L60.1651 24.4201L59.7881 17.6415L54.7958 17.9191ZM55.1728 24.6977L54.8952 19.7054L51.5722 19.8902L51.8498 24.8825L52.1275 29.8748L55.4505 29.69L55.1728 24.6977ZM67.0319 28.4434L67.658 23.4828C67.6392 23.4804 67.6205 23.4782 67.6018 23.476L67.0319 28.4434ZM66.1136 28.2519L61.2541 27.0749C60.6489 29.5737 62.0373 32.1241 64.4644 32.9721L66.1136 28.2519ZM66.7245 25.7297L67.9228 20.8755C66.6316 20.5567 65.2668 20.7655 64.1299 21.4556C62.9931 22.1457 62.1781 23.2602 61.865 24.5527L66.7245 25.7297ZM67.7884 25.8662L67.8996 30.865L67.9023 30.8649L67.7884 25.8662ZM68.5953 25.6022L65.5951 21.6024C65.5812 21.6128 65.5674 21.6233 65.5536 21.6339L68.5953 25.6022ZM69.1205 24.7749L73.874 26.3256C73.8759 26.3197 73.8778 26.3138 73.8797 26.3079L69.1205 24.7749ZM69.2873 24.257L74.0465 25.79C74.4093 24.6636 74.3609 23.445 73.9098 22.351L69.2873 24.257ZM64.3038 12.1714L64.0262 7.17908C62.4093 7.269 60.9361 8.13643 60.0731 9.50668C59.21 10.8769 59.0641 12.5803 59.6814 14.0774L64.3038 12.1714ZM67.7985 11.977L72.5281 10.3552C71.8019 8.23733 69.7563 6.86041 67.5208 6.98474L67.7985 11.977ZM70.7683 20.638L66.0387 22.2598C66.7649 24.3777 68.8105 25.7546 71.046 25.6303L70.7683 20.638ZM70.8931 20.631L71.1708 25.6233C73.4017 25.4992 75.2795 23.9101 75.7708 21.7304L70.8931 20.631ZM72.9077 11.6929L72.6301 6.70059C70.3992 6.82466 68.5214 8.41381 68.0301 10.5935L72.9077 11.6929ZM76.4257 11.4972L81.2285 12.8876C81.6793 11.3306 81.3473 9.65165 80.3378 8.38338C79.3283 7.11512 77.7666 6.41493 76.1481 6.50494L76.4257 11.4972ZM72.5072 25.0326L67.7044 23.6422C67.7028 23.6478 67.7012 23.6535 67.6995 23.6592L72.5072 25.0326ZM71.6883 26.7682L67.6242 23.8556C67.6127 23.8717 67.6012 23.8879 67.5899 23.9041L71.6883 26.7682ZM70.3072 27.9639L68.0186 23.5185C68.0076 23.5241 67.9966 23.5298 67.9857 23.5356L70.3072 27.9639ZM68.2232 28.4789L67.9456 23.4866C67.79 23.4953 67.6976 23.4878 67.658 23.4828L67.0319 28.4434L66.4059 33.4041C67.1122 33.4932 67.814 33.5094 68.5009 33.4712L68.2232 28.4789ZM67.0319 28.4434L67.6018 23.476C67.5429 23.4693 67.5274 23.465 67.5474 23.4692C67.5656 23.473 67.643 23.4899 67.7629 23.5318L66.1136 28.2519L64.4644 32.9721C65.1718 33.2193 65.8688 33.3428 66.4621 33.4108L67.0319 28.4434ZM66.1136 28.2519L70.9731 29.4289L71.584 26.9068L66.7245 25.7297L61.865 24.5527L61.2541 27.0749L66.1136 28.2519ZM66.7245 25.7297L65.5263 30.584C66.2281 30.7573 67.0352 30.8842 67.8996 30.865L67.7884 25.8662L67.6773 20.8674C67.8031 20.8646 67.888 20.8733 67.924 20.8779C67.9604 20.8826 67.9614 20.885 67.9228 20.8755L66.7245 25.7297ZM67.7884 25.8662L67.9023 30.8649C69.1196 30.8372 70.4555 30.4762 71.6371 29.5706L68.5953 25.6022L65.5536 21.6339C66.2948 21.0657 67.0929 20.8807 67.6745 20.8675L67.7884 25.8662ZM68.5953 25.6022L71.5955 29.6021C72.9269 28.6034 73.5617 27.2829 73.874 26.3256L69.1205 24.7749L64.367 23.2242C64.4298 23.032 64.7144 22.263 65.5951 21.6024L68.5953 25.6022ZM69.1205 24.7749L73.8797 26.3079L74.0465 25.79L69.2873 24.257L64.5281 22.7241L64.3613 23.2419L69.1205 24.7749ZM69.2873 24.257L73.9098 22.351L68.9263 10.2653L64.3038 12.1714L59.6814 14.0774L64.6649 26.1631L69.2873 24.257ZM64.3038 12.1714L64.5815 17.1637L68.0761 16.9693L67.7985 11.977L67.5208 6.98474L64.0262 7.17908L64.3038 12.1714ZM67.7985 11.977L63.0688 13.5988L66.0387 22.2598L70.7683 20.638L75.498 19.0162L72.5281 10.3552L67.7985 11.977ZM70.7683 20.638L71.046 25.6303L71.1708 25.6233L70.8931 20.631L70.6155 15.6387L70.4907 15.6457L70.7683 20.638ZM70.8931 20.631L75.7708 21.7304L77.7854 12.7923L72.9077 11.6929L68.0301 10.5935L66.0155 19.5316L70.8931 20.631ZM72.9077 11.6929L73.1854 16.6852L76.7034 16.4895L76.4257 11.4972L76.1481 6.50494L72.6301 6.70059L72.9077 11.6929ZM76.4257 11.4972L71.623 10.1068L67.7044 23.6422L72.5072 25.0326L77.31 26.423L81.2285 12.8876L76.4257 11.4972ZM72.5072 25.0326L67.6995 23.6592C67.652 23.8258 67.6128 23.8715 67.6242 23.8556L71.6883 26.7682L75.7523 29.6808C76.4801 28.6653 76.987 27.5539 77.3149 26.4059L72.5072 25.0326ZM71.6883 26.7682L67.5899 23.9041C67.6472 23.8221 67.7204 23.7395 67.8057 23.6657C67.8903 23.5924 67.9666 23.5453 68.0186 23.5185L70.3072 27.9639L72.5959 32.4094C73.8587 31.7593 74.9505 30.8288 75.7867 29.6323L71.6883 26.7682ZM70.3072 27.9639L67.9857 23.5356C68.0959 23.4778 68.1631 23.4614 68.161 23.4619C68.1598 23.4622 68.1424 23.4664 68.1062 23.4716C68.07 23.4768 68.0171 23.4826 67.9456 23.4866L68.2232 28.4789L68.5009 33.4712C69.8413 33.3966 71.2752 33.1019 72.6288 32.3923L70.3072 27.9639ZM80.6464 22.7411L78.3431 27.179C78.3534 27.1844 78.3637 27.1897 78.3741 27.1949L80.6464 22.7411ZM78.4899 20.6858L74.1767 23.2149L74.1825 23.2247L78.4899 20.6858ZM78.1294 14.2037L82.6919 16.2493L82.6965 16.2388L78.1294 14.2037ZM80.0448 11.9219L82.8077 16.0892L82.8152 16.0842L80.0448 11.9219ZM86.3241 11.5727L84.0208 16.0106C84.0311 16.0159 84.0414 16.0212 84.0517 16.0265L86.3241 11.5727ZM88.4884 13.6276L84.1752 16.1566L84.181 16.1664L88.4884 13.6276ZM88.8489 20.1097L93.4114 22.1553L93.416 22.1449L88.8489 20.1097ZM86.9258 22.3919L89.6888 26.5592L89.6963 26.5542L86.9258 22.3919ZM85.0601 20.2187L88.4944 23.8526C88.5043 23.8433 88.5142 23.8339 88.524 23.8245L85.0601 20.2187ZM85.8227 18.8774L81.0219 17.4801C81.018 17.4937 81.0141 17.5073 81.0102 17.521L85.8227 18.8774ZM85.6153 15.1488L80.983 17.0306C80.9883 17.0437 80.9937 17.0568 80.9991 17.0699L85.6153 15.1488ZM84.7087 13.9004L87.7514 9.93279L84.7087 13.9004ZM81.9239 14.0552L78.5097 10.4024C78.5015 10.4101 78.4932 10.4179 78.485 10.4257L81.9239 14.0552ZM81.1457 15.3974L76.3449 14.0001C76.341 14.0137 76.3371 14.0273 76.3332 14.0409L81.1457 15.3974ZM81.353 19.126L76.7207 21.0078C76.726 21.0209 76.7314 21.034 76.7368 21.0471L81.353 19.126ZM82.2753 20.3736L79.26 24.3621C79.2799 24.3771 79.2998 24.392 79.3199 24.4066L82.2753 20.3736ZM83.833 23.3386L83.5553 18.3463C83.3025 18.3603 83.14 18.3425 83.049 18.3254C82.9622 18.3091 82.9264 18.2912 82.9188 18.2874L80.6464 22.7411L78.3741 27.1949C80.2084 28.1309 82.18 28.4382 84.1106 28.3309L83.833 23.3386ZM80.6464 22.7411L82.9498 18.3033C82.9021 18.2785 82.8838 18.2619 82.8761 18.2545C82.8678 18.2466 82.8397 18.2187 82.7974 18.147L78.4899 20.6858L74.1825 23.2247C75.1787 24.9149 76.5846 26.2663 78.3431 27.179L80.6464 22.7411ZM78.4899 20.6858L82.8032 18.1568C82.7391 18.0476 82.6163 17.7813 82.5845 17.2109L77.5923 17.4886L72.6 17.7662C72.7048 19.6504 73.1804 21.5156 74.1767 23.2149L78.4899 20.6858ZM77.5923 17.4886L82.5845 17.2109C82.5518 16.6218 82.6478 16.3475 82.6919 16.2492L78.1294 14.2037L73.567 12.1581C72.7572 13.9643 72.4951 15.88 72.6 17.7662L77.5923 17.4886ZM78.1294 14.2037L82.6965 16.2388C82.7307 16.162 82.7545 16.1339 82.7579 16.1298C82.7607 16.1265 82.771 16.1135 82.8077 16.0892L80.0448 11.9219L77.2818 7.75466C75.6172 8.85833 74.3644 10.3686 73.5624 12.1685L78.1294 14.2037ZM80.0448 11.9219L82.8152 16.0842C82.8212 16.0802 82.8523 16.0596 82.9329 16.0348C83.0178 16.0086 83.1734 15.9732 83.4226 15.9593L83.145 10.9671L82.8673 5.97477C80.9282 6.08261 78.9963 6.61347 77.2743 7.75967L80.0448 11.9219ZM83.145 10.9671L83.4226 15.9593C83.6719 15.9455 83.8287 15.9636 83.9128 15.9796C83.9924 15.9948 84.0204 16.0104 84.0208 16.0106L86.3241 11.5727L88.6275 7.13485C86.7875 6.17985 84.8055 5.86698 82.8673 5.97477L83.145 10.9671ZM86.3241 11.5727L84.0517 16.0265C84.0748 16.0383 84.0879 16.0469 84.0942 16.0513C84.1003 16.0556 84.104 16.0588 84.107 16.0617C84.1097 16.0642 84.1346 16.0874 84.1752 16.1566L88.4884 13.6276L92.8017 11.0986C91.8006 9.39117 90.3797 8.02873 88.5965 7.11892L86.3241 11.5727ZM88.4884 13.6276L84.181 16.1664C84.2357 16.2592 84.3615 16.5212 84.3943 17.1103L89.3865 16.8327L94.3788 16.555C94.2739 14.6688 93.801 12.794 92.7959 11.0887L88.4884 13.6276ZM89.3865 16.8327L84.3943 17.1103C84.426 17.6806 84.3334 17.9589 84.2819 18.0746L88.8489 20.1097L93.416 22.1449C94.2178 20.3457 94.4836 18.4392 94.3788 16.555L89.3865 16.8327ZM88.8489 20.1097L84.2865 18.0642C84.254 18.1366 84.2307 18.1651 84.2244 18.1726C84.2185 18.1796 84.2021 18.1985 84.1553 18.2297L86.9258 22.3919L89.6963 26.5542C91.3495 25.4538 92.6051 23.9535 93.4113 22.1553L88.8489 20.1097ZM86.9258 22.3919L84.1629 18.2247C84.1614 18.2257 84.1328 18.2454 84.0516 18.2703C83.9661 18.2965 83.8083 18.3322 83.5553 18.3463L83.833 23.3386L84.1106 28.3309C86.0403 28.2235 87.9687 27.6996 89.6888 26.5592L86.9258 22.3919ZM83.7054 20.7636L83.9831 25.7558C85.5384 25.6693 87.1642 25.1098 88.4944 23.8526L85.0601 20.2187L81.6257 16.5849C81.9075 16.3185 82.2395 16.1072 82.5918 15.9655C82.9356 15.8272 83.2305 15.7822 83.4278 15.7713L83.7054 20.7636ZM85.0601 20.2187L88.524 23.8245C89.6274 22.7645 90.2821 21.4866 90.6352 20.2339L85.8227 18.8774L81.0102 17.521C81.0496 17.3811 81.1959 16.9975 81.5962 16.613L85.0601 20.2187ZM85.8227 18.8774L90.6235 20.2748C90.9722 19.0767 91.0639 17.8698 90.9999 16.7195L86.0076 16.9971L81.0154 17.2747C81.0289 17.5181 80.9973 17.5647 81.0219 17.4801L85.8227 18.8774ZM86.0076 16.9971L90.9999 16.7195C90.936 15.5691 90.711 14.3798 90.2316 13.2278L85.6153 15.1488L80.9991 17.0699C80.9653 16.9885 81.0018 17.0314 81.0154 17.2747L86.0076 16.9971ZM85.6153 15.1488L90.2477 13.2671C89.7579 12.0613 88.9656 10.8639 87.7514 9.93279L84.7087 13.9004L81.6659 17.868C81.2255 17.5302 81.0376 17.1652 80.983 17.0306L85.6153 15.1488ZM84.7087 13.9004L87.7514 9.93279C86.2901 8.81211 84.6005 8.42137 83.0239 8.50905L83.3015 13.5013L83.5792 18.4936C83.3736 18.5051 83.067 18.4918 82.7026 18.3884C82.3294 18.2826 81.9738 18.1041 81.6659 17.868L84.7087 13.9004ZM83.3015 13.5013L83.0239 8.50905C81.4525 8.59644 79.835 9.16368 78.5097 10.4024L81.9239 14.0552L85.3381 17.7081C85.0686 17.96 84.7489 18.1638 84.4051 18.3021C84.0689 18.4373 83.7781 18.4826 83.5792 18.4936L83.3015 13.5013ZM81.9239 14.0552L78.485 10.4257C77.3769 11.4756 76.71 12.7459 76.3449 14.0001L81.1457 15.3974L85.9465 16.7947C85.9055 16.9355 85.7574 17.311 85.3629 17.6848L81.9239 14.0552ZM81.1457 15.3974L76.3332 14.0409C75.9993 15.2254 75.913 16.4178 75.9763 17.555L80.9686 17.2773L85.9608 16.9997C85.9466 16.7432 85.9783 16.6823 85.9582 16.7539L81.1457 15.3974ZM80.9686 17.2773L75.9763 17.555C76.0395 18.6922 76.2575 19.8676 76.7207 21.0078L81.353 19.126L85.9854 17.2443C86.0134 17.3132 85.9751 17.2562 85.9608 16.9997L80.9686 17.2773ZM81.353 19.126L76.7368 21.0471C77.2387 22.2531 78.0424 23.4416 79.26 24.3621L82.2753 20.3736L85.2906 16.3851C85.7241 16.7128 85.913 17.0696 85.9693 17.205L81.353 19.126ZM82.2753 20.3736L79.3199 24.4066C80.774 25.4722 82.4324 25.8421 83.9831 25.7558L83.7054 20.7636L83.4278 15.7713C83.6184 15.7607 83.9041 15.7722 84.2459 15.8654C84.5956 15.9607 84.9335 16.1228 85.2308 16.3406L82.2753 20.3736ZM99.2775 17.1276L94.2853 17.4053C94.2862 17.4214 94.2871 17.4376 94.2882 17.4537L99.2775 17.1276ZM98.8949 10.2476L98.6173 5.25535C95.8601 5.40869 93.7493 7.76811 93.9026 10.5253L98.8949 10.2476ZM102.218 10.0628L107.21 9.7852C107.057 7.02803 104.697 4.91721 101.94 5.07055L102.218 10.0628ZM102.884 22.0443L103.162 27.0366C105.919 26.8833 108.03 24.5238 107.877 21.7667L102.884 22.0443ZM99.6939 22.2217L94.7016 22.4994C94.8549 25.2565 97.2143 27.3674 99.9715 27.214L99.6939 22.2217ZM99.5728 20.0454L104.565 19.7678C104.412 17.0106 102.052 14.8998 99.2952 15.0531L99.5728 20.0454ZM99.448 20.0524L99.1704 15.0601C97.1056 15.1749 95.3246 16.549 94.6896 18.517L99.448 20.0524ZM98.1927 21.8201L95.1622 17.8432C95.1571 17.8471 95.152 17.851 95.1469 17.8549L98.1927 21.8201ZM93.7984 22.1584L96.1233 17.7318L96.1233 17.7318L93.7984 22.1584ZM92.2846 20.6855L87.9513 23.1799C87.9564 23.1888 87.9615 23.1976 87.9667 23.2065L92.2846 20.6855ZM91.6358 18.3038L86.6435 18.5814C86.644 18.5907 86.6445 18.5999 86.6451 18.6091L91.6358 18.3038ZM91.2115 10.6749L90.9339 5.68265C88.1767 5.83599 86.0659 8.19542 86.2192 10.9526L91.2115 10.6749ZM94.5345 10.4901L99.5268 10.2125C99.3734 7.45534 97.014 5.34452 94.2568 5.49785L94.5345 10.4901ZM94.9258 17.5261L89.9335 17.8038C89.9342 17.816 89.9349 17.8282 89.9357 17.8405L94.9258 17.5261ZM95.5885 19.1716L99.0912 15.6035L99.0912 15.6035L95.5885 19.1716ZM98.2363 19.3686L100.794 23.6649C100.811 23.655 100.827 23.645 100.844 23.6349L98.2363 19.3686ZM99.0328 18.4949L94.6091 16.1645C94.6009 16.18 94.5927 16.1957 94.5847 16.2113L99.0328 18.4949ZM99.2775 17.1276L104.27 16.85L103.887 9.97L98.8949 10.2476L93.9026 10.5253L94.2853 17.4053L99.2775 17.1276ZM98.8949 10.2476L99.1726 15.2399L102.496 15.0551L102.218 10.0628L101.94 5.07055L98.6173 5.25535L98.8949 10.2476ZM102.218 10.0628L97.2256 10.3405L97.892 22.322L102.884 22.0443L107.877 21.7667L107.21 9.7852L102.218 10.0628ZM102.884 22.0443L102.607 17.052L99.4162 17.2295L99.6939 22.2217L99.9715 27.214L103.162 27.0366L102.884 22.0443ZM99.6939 22.2217L104.686 21.9441L104.565 19.7678L99.5728 20.0454L94.5806 20.3231L94.7016 22.4994L99.6939 22.2217ZM99.5728 20.0454L99.2952 15.0531L99.1704 15.0601L99.448 20.0524L99.7257 25.0447L99.8505 25.0377L99.5728 20.0454ZM99.448 20.0524L94.6896 18.517C94.7238 18.411 94.7856 18.2758 94.884 18.1371C94.9822 17.9989 95.0851 17.9019 95.1622 17.8432L98.1927 21.8201L101.223 25.7971C102.631 24.724 103.658 23.2866 104.206 21.5877L99.448 20.0524ZM98.1927 21.8201L95.1469 17.8549C95.2992 17.7379 95.4501 17.6648 95.5671 17.6249C95.6776 17.5873 95.7212 17.5914 95.6651 17.5946L95.9427 22.5869L96.2204 27.5791C97.93 27.4841 99.6978 26.9688 101.239 25.7853L98.1927 21.8201ZM95.9427 22.5869L95.6651 17.5946C95.6441 17.5957 95.6904 17.591 95.7858 17.6101C95.8847 17.6298 96.0032 17.6687 96.1233 17.7318L93.7984 22.1584L91.4736 26.585C93.0024 27.388 94.6364 27.6672 96.2204 27.5791L95.9427 22.5869ZM93.7984 22.1584L96.1233 17.7318C96.2311 17.7884 96.3398 17.866 96.4353 17.9589C96.5291 18.0502 96.5814 18.1282 96.6025 18.1645L92.2846 20.6855L87.9667 23.2065C88.7888 24.6146 89.9623 25.7913 91.4736 26.585L93.7984 22.1584ZM92.2846 20.6855L96.618 18.1911C96.7109 18.3525 96.6479 18.3489 96.6264 17.9984L91.6358 18.3038L86.6451 18.6091C86.7382 20.1301 87.1077 21.7144 87.9513 23.1799L92.2846 20.6855ZM91.6358 18.3038L96.628 18.0261L96.2038 10.3973L91.2115 10.6749L86.2192 10.9526L86.6435 18.5814L91.6358 18.3038ZM91.2115 10.6749L91.4891 15.6672L94.8121 15.4824L94.5345 10.4901L94.2568 5.49785L90.9339 5.68265L91.2115 10.6749ZM94.5345 10.4901L89.5422 10.7678L89.9335 17.8038L94.9258 17.5261L99.9181 17.2485L99.5268 10.2125L94.5345 10.4901ZM94.9258 17.5261L89.9357 17.8405C90.0359 19.4319 90.5886 21.2699 92.0857 22.7396L95.5885 19.1716L99.0912 15.6035C99.4142 15.9206 99.6322 16.2755 99.7628 16.5998C99.887 16.9082 99.911 17.1343 99.9159 17.2118L94.9258 17.5261ZM95.5885 19.1716L92.0857 22.7396C93.6245 24.2502 95.5774 24.7981 97.4059 24.6964L97.1282 19.7041L96.8506 14.7118C97.0818 14.6989 97.458 14.717 97.9056 14.8718C98.3679 15.0317 98.7743 15.2924 99.0912 15.6035L95.5885 19.1716ZM97.1282 19.7041L97.4059 24.6964C98.5957 24.6302 99.7495 24.2867 100.794 23.6649L98.2363 19.3686L95.6787 15.0722C96.0465 14.8533 96.4616 14.7334 96.8506 14.7118L97.1282 19.7041ZM98.2363 19.3686L100.844 23.6349C102.019 22.9169 102.897 21.9151 103.481 20.7784L99.0328 18.4949L94.5847 16.2113C94.7823 15.8264 95.1301 15.4071 95.6288 15.1023L98.2363 19.3686ZM99.0328 18.4949L103.456 20.8253C104.184 19.4443 104.346 18.0189 104.267 16.8015L99.2775 17.1276L94.2882 17.4537C94.2786 17.3071 94.2779 16.7932 94.6091 16.1645L99.0328 18.4949Z" fill="white" mask="url(#path-1-outside-1_4138_16615)"/>
</g>
<path d="M119.878 3.97246L112.058 12.468L112.29 0.000172503L119.878 3.97246Z" fill="#410E0B"/>
<path d="M124.651 19.1559L114.893 15.3954L124.537 11.7243L124.651 19.1559Z" fill="#410E0B"/>
<defs>
<filter id="filter0_dd_4138_16615" x="0" y="2.0625" width="111.885" height="36.4277" filterUnits="userSpaceOnUse" color-interpolation-filters="sRGB">
<feFlood flood-opacity="0" result="BackgroundImageFix"/>
<feColorMatrix in="SourceAlpha" type="matrix" values="0 0 0 0 0 0 0 0 0 0 0 0 0 0 0 0 0 0 127 0" result="hardAlpha"/>
<feOffset dy="1"/>
<feGaussianBlur stdDeviation="0.5"/>
<feColorMatrix type="matrix" values="0 0 0 0 0.254902 0 0 0 0 0.054902 0 0 0 0 0.0431373 0 0 0 0.2 0"/>
<feBlend mode="normal" in2="BackgroundImageFix" result="effect1_dropShadow_4138_16615"/>
<feColorMatrix in="SourceAlpha" type="matrix" values="0 0 0 0 0 0 0 0 0 0 0 0 0 0 0 0 0 0 127 0" result="hardAlpha"/>
<feOffset dy="1"/>
<feGaussianBlur stdDeviation="2"/>
<feColorMatrix type="matrix" values="0 0 0 0 0.254902 0 0 0 0 0.054902 0 0 0 0 0.0431373 0 0 0 0.15 0"/>
<feBlend mode="normal" in2="effect1_dropShadow_4138_16615" result="effect2_dropShadow_4138_16615"/>
<feBlend mode="normal" in="SourceGraphic" in2="effect2_dropShadow_4138_16615" result="shape"/>
</filter>
</defs>
</svg>
