<svg width="134" height="43" viewBox="0 0 134 43" fill="none" xmlns="http://www.w3.org/2000/svg">
<g filter="url(#filter0_dd_6064_4199)">
<mask id="path-1-outside-1_6064_4199" maskUnits="userSpaceOnUse" x="3.66717" y="2.69176" width="112.55" height="37.1157" fill="black">
<rect fill="white" x="3.66717" y="2.69176" width="112.55" height="37.1157"/>
<path d="M9.15437 16.3513L8.9995 13.5665L22.1198 12.8368L22.2747 15.6216L17.3838 15.8936L18.1174 29.0842L14.7788 29.2698L14.0452 16.0793L9.15437 16.3513ZM28.7956 28.725C27.5839 28.7924 26.5217 28.5933 25.6091 28.1276C24.7013 27.6565 23.9824 26.9714 23.4525 26.0723C22.9223 25.1681 22.6231 24.1023 22.5549 22.875C22.486 21.6374 22.6651 20.5424 23.092 19.5902C23.5187 18.6327 24.1571 17.8721 25.0074 17.3084C25.8625 16.7392 26.8959 16.4209 28.1076 16.3535C29.3192 16.2861 30.379 16.488 31.2867 16.9592C32.1994 17.4248 32.9208 18.1098 33.451 19.0141C33.9809 19.9131 34.2803 20.9815 34.3491 22.2191C34.4174 23.4464 34.2382 24.5388 33.8115 25.4962C33.3846 26.4485 32.7435 27.2092 31.8884 27.7784C31.0382 28.3421 30.0073 28.6577 28.7956 28.725ZM28.668 26.15C29.2193 26.1194 29.6708 25.9378 30.0227 25.6052C30.3743 25.2675 30.6285 24.8204 30.7853 24.2639C30.9474 23.7072 31.009 23.0804 30.9703 22.3836C30.9315 21.6867 30.8007 21.0706 30.578 20.5353C30.3604 19.9997 30.0582 19.5835 29.6713 19.2869C29.2844 18.9902 28.8154 18.8572 28.2642 18.8878C27.7077 18.9188 27.2485 19.1034 26.8865 19.4417C26.5298 19.7798 26.2703 20.2272 26.1083 20.7839C25.9515 21.3403 25.8924 21.967 25.9312 22.6638C25.9699 23.3606 26.0981 23.9769 26.3157 24.5125C26.5384 25.0478 26.8459 25.4637 27.2379 25.7601C27.6349 26.051 28.1116 26.181 28.668 26.15ZM37.0903 32.536L36.1741 16.0614L39.4503 15.8792L39.5622 17.8917L39.7104 17.8835C39.8381 17.553 40.0305 17.2136 40.2876 16.8655C40.5496 16.5119 40.898 16.2108 41.3328 15.9623C41.7725 15.7083 42.3278 15.5627 42.9986 15.5254C43.8723 15.4768 44.691 15.6608 45.4549 16.0773C46.2185 16.4887 46.8468 17.1397 47.3397 18.0304C47.8324 18.9159 48.1169 20.045 48.1932 21.4179C48.2675 22.7544 48.1145 23.8949 47.734 24.8393C47.3585 25.7783 46.8147 26.5049 46.1026 27.0192C45.3954 27.528 44.5867 27.8077 43.6767 27.8583C43.0318 27.8942 42.4773 27.8181 42.013 27.63C41.5539 27.4417 41.1724 27.1943 40.8684 26.8878C40.5642 26.5761 40.3274 26.258 40.1581 25.9335L40.0567 25.9392L40.4133 32.3512L37.0903 32.536ZM39.7601 21.8713C39.7997 22.5837 39.933 23.1996 40.1601 23.7191C40.3873 24.2385 40.6963 24.636 41.0872 24.9116C41.4778 25.182 41.9409 25.3023 42.4765 25.2725C43.0174 25.2425 43.4668 25.0688 43.8247 24.7516C44.1823 24.4291 44.4426 23.9973 44.6055 23.4562C44.7734 22.9096 44.8379 22.2879 44.7991 21.591C44.7607 20.8994 44.6306 20.2963 44.409 19.7818C44.1874 19.2672 43.8811 18.8722 43.4902 18.5966C43.0993 18.321 42.6308 18.1984 42.0848 18.2287C41.544 18.2588 41.0943 18.4273 40.7358 18.7341C40.3825 19.0407 40.1216 19.462 39.9532 19.9983C39.7848 20.5345 39.7204 21.1588 39.7601 21.8713ZM55.8248 26.9871L55.1584 15.0056L58.38 14.8265L58.4963 16.917L58.6211 16.91C58.7981 16.1543 59.1335 15.5722 59.6272 15.164C60.1207 14.7505 60.7028 14.5251 61.3736 14.4878C61.5401 14.4786 61.72 14.479 61.9136 14.4891C62.1072 14.4992 62.2778 14.5184 62.4254 14.5467L62.5894 17.4953C62.4308 17.4572 62.2127 17.4276 61.935 17.4065C61.6574 17.3854 61.4042 17.3812 61.1753 17.394C60.6865 17.4211 60.2556 17.552 59.8826 17.7867C59.5146 18.0158 59.2292 18.3238 59.0264 18.7106C58.8288 19.0972 58.7436 19.5349 58.7708 20.0237L59.1478 26.8023L55.8248 26.9871ZM67.8988 26.5425C67.1343 26.5851 66.4457 26.4903 65.8329 26.2584C65.2199 26.0212 64.7245 25.6497 64.3469 25.1439C63.9742 24.6325 63.7658 23.9816 63.7219 23.1912C63.6849 22.5256 63.776 21.9597 63.9952 21.4937C64.2145 21.0277 64.5271 20.6452 64.933 20.3461C65.3388 20.0471 65.8057 19.8125 66.3335 19.6423C66.8666 19.4718 67.4279 19.3414 68.0175 19.2513C68.7103 19.1397 69.2682 19.0409 69.6912 18.9548C70.1138 18.8634 70.4177 18.7474 70.6029 18.6067C70.7881 18.466 70.8736 18.2682 70.8594 18.0134L70.8568 17.9666C70.8294 17.4726 70.6521 17.0991 70.325 16.846C70.0032 16.5926 69.5588 16.4817 68.992 16.5132C68.394 16.5465 67.9255 16.7056 67.5867 16.9905C67.2475 17.2701 67.0317 17.6108 66.9393 18.0124L63.852 17.9337C63.9675 17.1969 64.2394 16.5506 64.6675 15.9948C65.0953 15.4337 65.6627 14.99 66.3696 14.6638C67.0815 14.3321 67.9158 14.1397 68.8727 14.0864C69.5383 14.0494 70.1797 14.092 70.7968 14.2142C71.4191 14.3361 71.976 14.5476 72.4675 14.8489C72.9641 15.15 73.3646 15.5502 73.6688 16.0497C73.9728 16.544 74.1445 17.1474 74.1842 17.8598L74.6336 25.9411L71.4822 26.1163L71.3898 24.4549L71.2962 24.4601C71.1246 24.8452 70.8856 25.1897 70.5791 25.4937C70.2723 25.7924 69.8971 26.035 69.4537 26.2213C69.0099 26.4025 68.4916 26.5096 67.8988 26.5425ZM68.7229 24.1963C69.2117 24.1691 69.638 24.0489 70.0017 23.8357C70.3652 23.6172 70.6442 23.3357 70.8389 22.991C71.0336 22.6463 71.1193 22.2634 71.0958 21.8421L71.0251 20.5707C70.9249 20.6441 70.7853 20.7144 70.6065 20.7817C70.4326 20.8436 70.2351 20.9041 70.0141 20.9634C69.7928 21.0174 69.5714 21.0688 69.3498 21.1177C69.1279 21.1613 68.9267 21.2012 68.7461 21.2373C68.3593 21.3162 68.0237 21.4262 67.7395 21.5672C67.4552 21.7082 67.2384 21.8898 67.089 22.1119C66.9394 22.3289 66.8732 22.5934 66.8906 22.9054C66.9157 23.3578 67.0988 23.6946 67.4397 23.9156C67.7855 24.1311 68.2133 24.2246 68.7229 24.1963ZM82.9183 13.4618L83.0571 15.958L75.8417 16.3592L75.7029 13.8631L82.9183 13.4618ZM77.1813 10.9014L80.5043 10.7166L81.1255 21.8869C81.1426 22.1937 81.2027 22.4303 81.3058 22.5967C81.4087 22.7579 81.5452 22.8677 81.7154 22.926C81.8908 22.9841 82.0902 23.0069 82.3139 22.9945C82.4699 22.9858 82.6251 22.9641 82.7797 22.9294C82.934 22.8895 83.0523 22.8595 83.1346 22.8393L83.7948 25.2829C83.6313 25.3442 83.4006 25.417 83.1027 25.5014C82.8051 25.591 82.441 25.6556 82.0102 25.6952C81.2111 25.7709 80.5031 25.7033 79.8863 25.4925C79.2747 25.2813 78.7882 24.9276 78.4267 24.4313C78.0653 23.9349 77.8653 23.294 77.8268 22.5085L77.1813 10.9014ZM91.0938 25.2604C89.8614 25.329 88.7866 25.1383 87.8696 24.6886C86.9575 24.2333 86.2367 23.5587 85.707 22.6649C85.1771 21.7659 84.877 20.6845 84.8068 19.4208C84.7382 18.1884 84.9173 17.0934 85.3439 16.1359C85.7706 15.1785 86.4037 14.4156 87.2432 13.8472C88.088 13.2786 89.098 12.9616 90.2732 12.8963C91.0637 12.8523 91.8066 12.9388 92.502 13.1557C93.2023 13.3672 93.8213 13.7109 94.359 14.187C94.9019 14.6628 95.3376 15.275 95.6661 16.0235C95.9944 16.7669 96.1868 17.6482 96.2435 18.6674L96.2943 19.5801L86.1771 20.1427L86.0626 18.0834L93.0518 17.6947C93.0252 17.2163 92.8976 16.7982 92.669 16.4406C92.4405 16.0829 92.1358 15.8104 91.755 15.6229C91.3792 15.4299 90.9494 15.3469 90.4658 15.3738C89.9613 15.4018 89.5206 15.5437 89.1436 15.7994C88.7715 16.0496 88.4871 16.3758 88.2904 16.778C88.0934 17.175 88.0054 17.6102 88.0265 18.0837L88.1354 20.0416C88.1684 20.6345 88.3061 21.1406 88.5485 21.5601C88.7961 21.9793 89.1293 22.2946 89.5479 22.5061C89.9665 22.7175 90.4541 22.8078 91.0105 22.7768C91.3797 22.7563 91.7148 22.6855 92.0159 22.5644C92.3169 22.4434 92.5709 22.2727 92.7777 22.0526C92.9845 21.8324 93.1368 21.5684 93.2344 21.2604L96.3191 21.2923C96.2041 22.0394 95.9202 22.702 95.4672 23.2801C95.0191 23.8528 94.424 24.3136 93.6818 24.6627C92.9446 25.0062 92.0819 25.2055 91.0938 25.2604ZM103.175 24.5494C102.265 24.6001 101.427 24.4119 100.663 23.9849C99.9032 23.5525 99.2822 22.8906 98.7997 21.9994C98.322 21.1026 98.0461 19.986 97.9717 18.6496C97.8954 17.2767 98.0529 16.1229 98.4443 15.1883C98.8355 14.2484 99.3851 13.5319 100.093 13.0387C100.806 12.54 101.602 12.2662 102.481 12.2174C103.152 12.1801 103.717 12.2634 104.177 12.4673C104.642 12.6658 105.022 12.9263 105.316 13.249C105.615 13.5662 105.847 13.882 106.01 14.1963L106.112 14.1907L105.778 8.18433L109.093 7.99996L109.981 23.9753L106.705 24.1575L106.598 22.2386L106.458 22.2464C106.321 22.5879 106.118 22.9304 105.85 23.2739C105.587 23.6119 105.235 23.9001 104.795 24.1385C104.36 24.3766 103.819 24.5136 103.175 24.5494ZM104.081 21.8465C104.616 21.8167 105.061 21.646 105.414 21.3342C105.771 21.017 106.035 20.5876 106.203 20.0462C106.376 19.5045 106.443 18.8774 106.403 18.165C106.364 17.4526 106.23 16.8392 106.004 16.325C105.777 15.8107 105.468 15.421 105.078 15.1558C104.687 14.8906 104.224 14.7729 103.689 14.8027C103.143 14.8331 102.691 15.0069 102.333 15.3241C101.975 15.6414 101.714 16.068 101.551 16.6039C101.388 17.1398 101.326 17.7536 101.364 18.4452C101.403 19.1421 101.533 19.753 101.756 20.2779C101.983 20.7973 102.289 21.1976 102.675 21.4787C103.066 21.7543 103.535 21.8769 104.081 21.8465Z"/>
</mask>
<path d="M9.15437 16.3513L8.9995 13.5665L22.1198 12.8368L22.2747 15.6216L17.3838 15.8936L18.1174 29.0842L14.7788 29.2698L14.0452 16.0793L9.15437 16.3513ZM28.7956 28.725C27.5839 28.7924 26.5217 28.5933 25.6091 28.1276C24.7013 27.6565 23.9824 26.9714 23.4525 26.0723C22.9223 25.1681 22.6231 24.1023 22.5549 22.875C22.486 21.6374 22.6651 20.5424 23.092 19.5902C23.5187 18.6327 24.1571 17.8721 25.0074 17.3084C25.8625 16.7392 26.8959 16.4209 28.1076 16.3535C29.3192 16.2861 30.379 16.488 31.2867 16.9592C32.1994 17.4248 32.9208 18.1098 33.451 19.0141C33.9809 19.9131 34.2803 20.9815 34.3491 22.2191C34.4174 23.4464 34.2382 24.5388 33.8115 25.4962C33.3846 26.4485 32.7435 27.2092 31.8884 27.7784C31.0382 28.3421 30.0073 28.6577 28.7956 28.725ZM28.668 26.15C29.2193 26.1194 29.6708 25.9378 30.0227 25.6052C30.3743 25.2675 30.6285 24.8204 30.7853 24.2639C30.9474 23.7072 31.009 23.0804 30.9703 22.3836C30.9315 21.6867 30.8007 21.0706 30.578 20.5353C30.3604 19.9997 30.0582 19.5835 29.6713 19.2869C29.2844 18.9902 28.8154 18.8572 28.2642 18.8878C27.7077 18.9188 27.2485 19.1034 26.8865 19.4417C26.5298 19.7798 26.2703 20.2272 26.1083 20.7839C25.9515 21.3403 25.8924 21.967 25.9312 22.6638C25.9699 23.3606 26.0981 23.9769 26.3157 24.5125C26.5384 25.0478 26.8459 25.4637 27.2379 25.7601C27.6349 26.051 28.1116 26.181 28.668 26.15ZM37.0903 32.536L36.1741 16.0614L39.4503 15.8792L39.5622 17.8917L39.7104 17.8835C39.8381 17.553 40.0305 17.2136 40.2876 16.8655C40.5496 16.5119 40.898 16.2108 41.3328 15.9623C41.7725 15.7083 42.3278 15.5627 42.9986 15.5254C43.8723 15.4768 44.691 15.6608 45.4549 16.0773C46.2185 16.4887 46.8468 17.1397 47.3397 18.0304C47.8324 18.9159 48.1169 20.045 48.1932 21.4179C48.2675 22.7544 48.1145 23.8949 47.734 24.8393C47.3585 25.7783 46.8147 26.5049 46.1026 27.0192C45.3954 27.528 44.5867 27.8077 43.6767 27.8583C43.0318 27.8942 42.4773 27.8181 42.013 27.63C41.5539 27.4417 41.1724 27.1943 40.8684 26.8878C40.5642 26.5761 40.3274 26.258 40.1581 25.9335L40.0567 25.9392L40.4133 32.3512L37.0903 32.536ZM39.7601 21.8713C39.7997 22.5837 39.933 23.1996 40.1601 23.7191C40.3873 24.2385 40.6963 24.636 41.0872 24.9116C41.4778 25.182 41.9409 25.3023 42.4765 25.2725C43.0174 25.2425 43.4668 25.0688 43.8247 24.7516C44.1823 24.4291 44.4426 23.9973 44.6055 23.4562C44.7734 22.9096 44.8379 22.2879 44.7991 21.591C44.7607 20.8994 44.6306 20.2963 44.409 19.7818C44.1874 19.2672 43.8811 18.8722 43.4902 18.5966C43.0993 18.321 42.6308 18.1984 42.0848 18.2287C41.544 18.2588 41.0943 18.4273 40.7358 18.7341C40.3825 19.0407 40.1216 19.462 39.9532 19.9983C39.7848 20.5345 39.7204 21.1588 39.7601 21.8713ZM55.8248 26.9871L55.1584 15.0056L58.38 14.8265L58.4963 16.917L58.6211 16.91C58.7981 16.1543 59.1335 15.5722 59.6272 15.164C60.1207 14.7505 60.7028 14.5251 61.3736 14.4878C61.5401 14.4786 61.72 14.479 61.9136 14.4891C62.1072 14.4992 62.2778 14.5184 62.4254 14.5467L62.5894 17.4953C62.4308 17.4572 62.2127 17.4276 61.935 17.4065C61.6574 17.3854 61.4042 17.3812 61.1753 17.394C60.6865 17.4211 60.2556 17.552 59.8826 17.7867C59.5146 18.0158 59.2292 18.3238 59.0264 18.7106C58.8288 19.0972 58.7436 19.5349 58.7708 20.0237L59.1478 26.8023L55.8248 26.9871ZM67.8988 26.5425C67.1343 26.5851 66.4457 26.4903 65.8329 26.2584C65.2199 26.0212 64.7245 25.6497 64.3469 25.1439C63.9742 24.6325 63.7658 23.9816 63.7219 23.1912C63.6849 22.5256 63.776 21.9597 63.9952 21.4937C64.2145 21.0277 64.5271 20.6452 64.933 20.3461C65.3388 20.0471 65.8057 19.8125 66.3335 19.6423C66.8666 19.4718 67.4279 19.3414 68.0175 19.2513C68.7103 19.1397 69.2682 19.0409 69.6912 18.9548C70.1138 18.8634 70.4177 18.7474 70.6029 18.6067C70.7881 18.466 70.8736 18.2682 70.8594 18.0134L70.8568 17.9666C70.8294 17.4726 70.6521 17.0991 70.325 16.846C70.0032 16.5926 69.5588 16.4817 68.992 16.5132C68.394 16.5465 67.9255 16.7056 67.5867 16.9905C67.2475 17.2701 67.0317 17.6108 66.9393 18.0124L63.852 17.9337C63.9675 17.1969 64.2394 16.5506 64.6675 15.9948C65.0953 15.4337 65.6627 14.99 66.3696 14.6638C67.0815 14.3321 67.9158 14.1397 68.8727 14.0864C69.5383 14.0494 70.1797 14.092 70.7968 14.2142C71.4191 14.3361 71.976 14.5476 72.4675 14.8489C72.9641 15.15 73.3646 15.5502 73.6688 16.0497C73.9728 16.544 74.1445 17.1474 74.1842 17.8598L74.6336 25.9411L71.4822 26.1163L71.3898 24.4549L71.2962 24.4601C71.1246 24.8452 70.8856 25.1897 70.5791 25.4937C70.2723 25.7924 69.8971 26.035 69.4537 26.2213C69.0099 26.4025 68.4916 26.5096 67.8988 26.5425ZM68.7229 24.1963C69.2117 24.1691 69.638 24.0489 70.0017 23.8357C70.3652 23.6172 70.6442 23.3357 70.8389 22.991C71.0336 22.6463 71.1193 22.2634 71.0958 21.8421L71.0251 20.5707C70.9249 20.6441 70.7853 20.7144 70.6065 20.7817C70.4326 20.8436 70.2351 20.9041 70.0141 20.9634C69.7928 21.0174 69.5714 21.0688 69.3498 21.1177C69.1279 21.1613 68.9267 21.2012 68.7461 21.2373C68.3593 21.3162 68.0237 21.4262 67.7395 21.5672C67.4552 21.7082 67.2384 21.8898 67.089 22.1119C66.9394 22.3289 66.8732 22.5934 66.8906 22.9054C66.9157 23.3578 67.0988 23.6946 67.4397 23.9156C67.7855 24.1311 68.2133 24.2246 68.7229 24.1963ZM82.9183 13.4618L83.0571 15.958L75.8417 16.3592L75.7029 13.8631L82.9183 13.4618ZM77.1813 10.9014L80.5043 10.7166L81.1255 21.8869C81.1426 22.1937 81.2027 22.4303 81.3058 22.5967C81.4087 22.7579 81.5452 22.8677 81.7154 22.926C81.8908 22.9841 82.0902 23.0069 82.3139 22.9945C82.4699 22.9858 82.6251 22.9641 82.7797 22.9294C82.934 22.8895 83.0523 22.8595 83.1346 22.8393L83.7948 25.2829C83.6313 25.3442 83.4006 25.417 83.1027 25.5014C82.8051 25.591 82.441 25.6556 82.0102 25.6952C81.2111 25.7709 80.5031 25.7033 79.8863 25.4925C79.2747 25.2813 78.7882 24.9276 78.4267 24.4313C78.0653 23.9349 77.8653 23.294 77.8268 22.5085L77.1813 10.9014ZM91.0938 25.2604C89.8614 25.329 88.7866 25.1383 87.8696 24.6886C86.9575 24.2333 86.2367 23.5587 85.707 22.6649C85.1771 21.7659 84.877 20.6845 84.8068 19.4208C84.7382 18.1884 84.9173 17.0934 85.3439 16.1359C85.7706 15.1785 86.4037 14.4156 87.2432 13.8472C88.088 13.2786 89.098 12.9616 90.2732 12.8963C91.0637 12.8523 91.8066 12.9388 92.502 13.1557C93.2023 13.3672 93.8213 13.7109 94.359 14.187C94.9019 14.6628 95.3376 15.275 95.6661 16.0235C95.9944 16.7669 96.1868 17.6482 96.2435 18.6674L96.2943 19.5801L86.1771 20.1427L86.0626 18.0834L93.0518 17.6947C93.0252 17.2163 92.8976 16.7982 92.669 16.4406C92.4405 16.0829 92.1358 15.8104 91.755 15.6229C91.3792 15.4299 90.9494 15.3469 90.4658 15.3738C89.9613 15.4018 89.5206 15.5437 89.1436 15.7994C88.7715 16.0496 88.4871 16.3758 88.2904 16.778C88.0934 17.175 88.0054 17.6102 88.0265 18.0837L88.1354 20.0416C88.1684 20.6345 88.3061 21.1406 88.5485 21.5601C88.7961 21.9793 89.1293 22.2946 89.5479 22.5061C89.9665 22.7175 90.4541 22.8078 91.0105 22.7768C91.3797 22.7563 91.7148 22.6855 92.0159 22.5644C92.3169 22.4434 92.5709 22.2727 92.7777 22.0526C92.9845 21.8324 93.1368 21.5684 93.2344 21.2604L96.3191 21.2923C96.2041 22.0394 95.9202 22.702 95.4672 23.2801C95.0191 23.8528 94.424 24.3136 93.6818 24.6627C92.9446 25.0062 92.0819 25.2055 91.0938 25.2604ZM103.175 24.5494C102.265 24.6001 101.427 24.4119 100.663 23.9849C99.9032 23.5525 99.2822 22.8906 98.7997 21.9994C98.322 21.1026 98.0461 19.986 97.9717 18.6496C97.8954 17.2767 98.0529 16.1229 98.4443 15.1883C98.8355 14.2484 99.3851 13.5319 100.093 13.0387C100.806 12.54 101.602 12.2662 102.481 12.2174C103.152 12.1801 103.717 12.2634 104.177 12.4673C104.642 12.6658 105.022 12.9263 105.316 13.249C105.615 13.5662 105.847 13.882 106.01 14.1963L106.112 14.1907L105.778 8.18433L109.093 7.99996L109.981 23.9753L106.705 24.1575L106.598 22.2386L106.458 22.2464C106.321 22.5879 106.118 22.9304 105.85 23.2739C105.587 23.6119 105.235 23.9001 104.795 24.1385C104.36 24.3766 103.819 24.5136 103.175 24.5494ZM104.081 21.8465C104.616 21.8167 105.061 21.646 105.414 21.3342C105.771 21.017 106.035 20.5876 106.203 20.0462C106.376 19.5045 106.443 18.8774 106.403 18.165C106.364 17.4526 106.23 16.8392 106.004 16.325C105.777 15.8107 105.468 15.421 105.078 15.1558C104.687 14.8906 104.224 14.7729 103.689 14.8027C103.143 14.8331 102.691 15.0069 102.333 15.3241C101.975 15.6414 101.714 16.068 101.551 16.6039C101.388 17.1398 101.326 17.7536 101.364 18.4452C101.403 19.1421 101.533 19.753 101.756 20.2779C101.983 20.7973 102.289 21.1976 102.675 21.4787C103.066 21.7543 103.535 21.8769 104.081 21.8465Z" fill="#410E0B"/>
<path d="M9.15437 16.3513L4.16208 16.6289C4.31542 19.3861 6.67484 21.4969 9.432 21.3436L9.15437 16.3513ZM8.9995 13.5665L8.72186 8.57422C5.96469 8.72756 3.85387 11.087 4.00721 13.8441L8.9995 13.5665ZM22.1198 12.8368L27.1121 12.5592C26.9588 9.80204 24.5994 7.69122 21.8422 7.84456L22.1198 12.8368ZM22.2747 15.6216L22.5524 20.6139C25.3095 20.4606 27.4203 18.1011 27.267 15.344L22.2747 15.6216ZM17.3838 15.8936L17.1062 10.9013C14.349 11.0546 12.2382 13.4141 12.3916 16.1712L17.3838 15.8936ZM18.1174 29.0842L18.395 34.0764C21.1522 33.9231 23.263 31.5637 23.1097 28.8065L18.1174 29.0842ZM14.7788 29.2698L9.78653 29.5475C9.93987 32.3046 12.2993 34.4154 15.0565 34.2621L14.7788 29.2698ZM14.0452 16.0793L19.0375 15.8016C18.8842 13.0445 16.5248 10.9336 13.7676 11.087L14.0452 16.0793ZM9.15437 16.3513L14.1467 16.0736L13.9918 13.2889L8.9995 13.5665L4.00721 13.8441L4.16208 16.6289L9.15437 16.3513ZM8.9995 13.5665L9.27713 18.5588L22.3975 17.8291L22.1198 12.8368L21.8422 7.84456L8.72186 8.57422L8.9995 13.5665ZM22.1198 12.8368L17.1276 13.1145L17.2824 15.8992L22.2747 15.6216L27.267 15.344L27.1121 12.5592L22.1198 12.8368ZM22.2747 15.6216L21.9971 10.6293L17.1062 10.9013L17.3838 15.8936L17.6615 20.8859L22.5524 20.6139L22.2747 15.6216ZM17.3838 15.8936L12.3916 16.1712L13.1251 29.3618L18.1174 29.0842L23.1097 28.8065L22.3761 15.616L17.3838 15.8936ZM18.1174 29.0842L17.8398 24.0919L14.5012 24.2775L14.7788 29.2698L15.0565 34.2621L18.395 34.0764L18.1174 29.0842ZM14.7788 29.2698L19.7711 28.9922L19.0375 15.8016L14.0452 16.0793L9.05296 16.3569L9.78653 29.5475L14.7788 29.2698ZM14.0452 16.0793L13.7676 11.087L8.87673 11.359L9.15437 16.3513L9.432 21.3436L14.3229 21.0716L14.0452 16.0793ZM25.6091 28.1276L23.3057 32.5655C23.316 32.5708 23.3263 32.5761 23.3367 32.5814L25.6091 28.1276ZM23.4525 26.0723L19.1393 28.6014L19.1451 28.6112L23.4525 26.0723ZM23.092 19.5902L27.6545 21.6357L27.6591 21.6253L23.092 19.5902ZM25.0074 17.3084L27.7703 21.4757L27.7779 21.4707L25.0074 17.3084ZM31.2867 16.9592L28.9834 21.397C28.9937 21.4024 29.004 21.4077 29.0143 21.413L31.2867 16.9592ZM33.451 19.0141L29.1378 21.5431L29.1436 21.5529L33.451 19.0141ZM33.8115 25.4962L38.374 27.5418L38.3786 27.5314L33.8115 25.4962ZM31.8884 27.7784L34.6514 31.9457L34.6589 31.9407L31.8884 27.7784ZM30.0227 25.6052L33.4571 29.2391C33.4669 29.2297 33.4768 29.2204 33.4866 29.2109L30.0227 25.6052ZM30.7853 24.2639L25.9845 22.8666C25.9806 22.8802 25.9767 22.8938 25.9728 22.9074L30.7853 24.2639ZM30.578 20.5353L25.9456 22.4171C25.9509 22.4302 25.9563 22.4433 25.9617 22.4564L30.578 20.5353ZM29.6713 19.2869L32.714 15.3193L29.6713 19.2869ZM26.8865 19.4417L23.4723 15.7889C23.4641 15.7966 23.4558 15.8044 23.4476 15.8122L26.8865 19.4417ZM26.1083 20.7839L21.3075 19.3866C21.3036 19.4001 21.2997 19.4138 21.2958 19.4274L26.1083 20.7839ZM26.3157 24.5125L21.6833 26.3942C21.6886 26.4074 21.694 26.4205 21.6994 26.4335L26.3157 24.5125ZM27.2379 25.7601L24.2227 29.7486C24.2425 29.7636 24.2624 29.7784 24.2825 29.7931L27.2379 25.7601ZM28.7956 28.725L28.5179 23.7328C28.2651 23.7468 28.1026 23.7289 28.0116 23.7118C27.9248 23.6956 27.8891 23.6777 27.8814 23.6738L25.6091 28.1276L23.3367 32.5814C25.171 33.5173 27.1426 33.8247 29.0732 33.7173L28.7956 28.725ZM25.6091 28.1276L27.9124 23.6898C27.8647 23.665 27.8464 23.6483 27.8387 23.641C27.8304 23.6331 27.8023 23.6052 27.76 23.5335L23.4525 26.0723L19.1451 28.6112C20.1413 30.3014 21.5472 31.6528 23.3057 32.5655L25.6091 28.1276ZM23.4525 26.0723L27.7658 23.5433C27.7017 23.4341 27.5789 23.1678 27.5472 22.5974L22.5549 22.875L17.5626 23.1527C17.6674 25.0369 18.143 26.9021 19.1393 28.6013L23.4525 26.0723ZM22.5549 22.875L27.5472 22.5974C27.5144 22.0083 27.6104 21.734 27.6545 21.6357L23.092 19.5902L18.5296 17.5446C17.7198 19.3508 17.4577 21.2665 17.5626 23.1527L22.5549 22.875ZM23.092 19.5902L27.6591 21.6253C27.6933 21.5485 27.7171 21.5203 27.7205 21.5162C27.7233 21.5129 27.7336 21.5 27.7703 21.4757L25.0074 17.3084L22.2444 13.1411C20.5798 14.2448 19.327 15.7551 18.525 17.555L23.092 19.5902ZM25.0074 17.3084L27.7779 21.4707C27.7838 21.4667 27.8149 21.4461 27.8955 21.4213C27.9804 21.3951 28.136 21.3597 28.3852 21.3458L28.1076 16.3535L27.8299 11.3612C25.8908 11.4691 23.9589 11.9999 22.2369 13.1461L25.0074 17.3084ZM28.1076 16.3535L28.3852 21.3458C28.6345 21.332 28.7913 21.3501 28.8754 21.3661C28.955 21.3812 28.983 21.3968 28.9834 21.397L31.2867 16.9592L33.5901 12.5213C31.7501 11.5663 29.7681 11.2535 27.8299 11.3612L28.1076 16.3535ZM31.2867 16.9592L29.0143 21.413C29.0374 21.4247 29.0505 21.4334 29.0568 21.4378C29.0629 21.4421 29.0666 21.4453 29.0697 21.4482C29.0723 21.4507 29.0972 21.4739 29.1378 21.5431L33.451 19.0141L37.7643 16.485C36.7632 14.7776 35.3423 13.4152 33.5591 12.5054L31.2867 16.9592ZM33.451 19.0141L29.1436 21.5529C29.1983 21.6457 29.3241 21.9076 29.3569 22.4968L34.3491 22.2191L39.3414 21.9415C39.2365 20.0553 38.7636 18.1805 37.7585 16.4752L33.451 19.0141ZM34.3491 22.2191L29.3569 22.4968C29.3886 23.0671 29.296 23.3454 29.2445 23.4611L33.8115 25.4962L38.3786 27.5314C39.1804 25.7321 39.4462 23.8257 39.3414 21.9415L34.3491 22.2191ZM33.8115 25.4962L29.2491 23.4507C29.2167 23.5231 29.1933 23.5516 29.187 23.559C29.1811 23.566 29.1647 23.585 29.1179 23.6162L31.8884 27.7784L34.6589 31.9407C36.3121 30.8403 37.5677 29.34 38.374 27.5418L33.8115 25.4962ZM31.8884 27.7784L29.1255 23.6111C29.124 23.6121 29.0954 23.6319 29.0142 23.6568C28.9287 23.683 28.771 23.7187 28.5179 23.7328L28.7956 28.725L29.0732 33.7173C31.0029 33.61 32.9313 33.0861 34.6514 31.9457L31.8884 27.7784ZM28.668 26.15L28.9457 31.1423C30.501 31.0558 32.1268 30.4963 33.4571 29.2391L30.0227 25.6052L26.5883 21.9713C26.8701 21.705 27.2021 21.4936 27.5545 21.3519C27.8982 21.2137 28.1931 21.1687 28.3904 21.1577L28.668 26.15ZM30.0227 25.6052L33.4866 29.2109C34.59 28.1509 35.2447 26.8731 35.5978 25.6204L30.7853 24.2639L25.9728 22.9074C26.0122 22.7676 26.1585 22.384 26.5588 21.9995L30.0227 25.6052ZM30.7853 24.2639L35.5861 25.6613C35.9348 24.4632 36.0265 23.2562 35.9625 22.1059L30.9703 22.3836L25.978 22.6612C25.9915 22.9046 25.9599 22.9512 25.9845 22.8666L30.7853 24.2639ZM30.9703 22.3836L35.9625 22.1059C35.8986 20.9556 35.6736 19.7663 35.1942 18.6143L30.578 20.5353L25.9617 22.4564C25.9279 22.375 25.9644 22.4178 25.978 22.6612L30.9703 22.3836ZM30.578 20.5353L35.2103 18.6536C34.7205 17.4477 33.9282 16.2504 32.714 15.3193L29.6713 19.2869L26.6286 23.2544C26.1881 22.9167 26.0002 22.5517 25.9456 22.4171L30.578 20.5353ZM29.6713 19.2869L32.714 15.3193C31.2527 14.1986 29.5631 13.8078 27.9865 13.8955L28.2642 18.8878L28.5418 23.8801C28.3362 23.8915 28.0296 23.8782 27.6652 23.7749C27.292 23.6691 26.9364 23.4905 26.6286 23.2544L29.6713 19.2869ZM28.2642 18.8878L27.9865 13.8955C26.4151 13.9829 24.7977 14.5502 23.4723 15.7889L26.8865 19.4417L30.3007 23.0946C30.0312 23.3465 29.7115 23.5503 29.3677 23.6885C29.0315 23.8237 28.7407 23.869 28.5418 23.8801L28.2642 18.8878ZM26.8865 19.4417L23.4476 15.8122C22.3395 16.862 21.6726 18.1323 21.3075 19.3866L26.1083 20.7839L30.9091 22.1812C30.8681 22.322 30.72 22.6975 30.3255 23.0713L26.8865 19.4417ZM26.1083 20.7839L21.2958 19.4274C20.9619 20.6119 20.8756 21.8042 20.9389 22.9414L25.9312 22.6638L30.9234 22.3862C30.9092 22.1297 30.941 22.0688 30.9208 22.1404L26.1083 20.7839ZM25.9312 22.6638L20.9389 22.9414C21.0021 24.0787 21.2201 25.2541 21.6833 26.3942L26.3157 24.5125L30.948 22.6307C30.976 22.6997 30.9377 22.6426 30.9234 22.3862L25.9312 22.6638ZM26.3157 24.5125L21.6994 26.4335C22.2013 27.6395 23.005 28.8281 24.2227 29.7486L27.2379 25.7601L30.2532 21.7716C30.6867 22.0993 30.8756 22.4561 30.9319 22.5915L26.3157 24.5125ZM27.2379 25.7601L24.2825 29.7931C25.7366 30.8587 27.395 31.2285 28.9457 31.1423L28.668 26.15L28.3904 21.1577C28.581 21.1471 28.8667 21.1587 29.2085 21.2519C29.5582 21.3472 29.8961 21.5092 30.1934 21.727L27.2379 25.7601ZM37.0903 32.536L32.098 32.8136C32.2514 35.5708 34.6108 37.6816 37.3679 37.5282L37.0903 32.536ZM36.1741 16.0614L35.8965 11.0691C33.1393 11.2225 31.0285 13.5819 31.1818 16.3391L36.1741 16.0614ZM39.4503 15.8792L44.4426 15.6016C44.2892 12.8444 41.9298 10.7336 39.1726 10.8869L39.4503 15.8792ZM39.5622 17.8917L34.5699 18.1694C34.7233 20.9265 37.0827 23.0374 39.8398 22.884L39.5622 17.8917ZM39.7104 17.8835L39.9881 22.8758C41.9501 22.7667 43.6664 21.5183 44.3745 19.6852L39.7104 17.8835ZM40.2876 16.8655L36.2702 13.8889L36.2655 13.8952L40.2876 16.8655ZM41.3328 15.9623L43.8138 20.3034C43.8204 20.2996 43.827 20.2958 43.8336 20.292L41.3328 15.9623ZM45.4549 16.0773L43.0612 20.4671C43.0686 20.4712 43.0761 20.4752 43.0836 20.4793L45.4549 16.0773ZM47.3397 18.0304L42.965 20.4515L42.9704 20.4613L47.3397 18.0304ZM47.734 24.8393L43.0961 22.9711L43.0915 22.9826L47.734 24.8393ZM46.1026 27.0192L49.0226 31.0779L49.03 31.0726L46.1026 27.0192ZM42.013 27.63L40.1152 32.2559C40.1221 32.2587 40.129 32.2615 40.1359 32.2643L42.013 27.63ZM40.8684 26.8878L37.2903 30.3801C37.2995 30.3896 37.3088 30.399 37.3181 30.4084L40.8684 26.8878ZM40.1581 25.9335L44.5908 23.6202C43.6826 21.8801 41.8403 20.8323 39.8805 20.9413L40.1581 25.9335ZM40.0567 25.9392L39.7791 20.9469C37.0219 21.1002 34.9111 23.4597 35.0644 26.2168L40.0567 25.9392ZM40.4133 32.3512L40.6909 37.3434C43.4481 37.1901 45.5589 34.8307 45.4056 32.0735L40.4133 32.3512ZM41.0872 24.9116L38.2061 28.9981C38.2178 29.0064 38.2296 29.0146 38.2414 29.0228L41.0872 24.9116ZM43.8247 24.7516L47.1411 28.4934C47.1517 28.484 47.1622 28.4746 47.1727 28.4652L43.8247 24.7516ZM44.6055 23.4562L39.8257 21.9887C39.8231 21.9974 39.8204 22.0061 39.8178 22.0148L44.6055 23.4562ZM44.409 19.7818L49.0011 17.8038L49.0011 17.8038L44.409 19.7818ZM43.4902 18.5966L46.3713 14.5101L46.3713 14.5101L43.4902 18.5966ZM40.7358 18.7341L37.4846 14.9354C37.4761 14.9428 37.4676 14.9501 37.459 14.9575L40.7358 18.7341ZM39.9532 19.9983L35.1829 18.5001L35.1829 18.5001L39.9532 19.9983ZM37.0903 32.536L42.0826 32.2583L41.1664 15.7838L36.1741 16.0614L31.1818 16.3391L32.098 32.8136L37.0903 32.536ZM36.1741 16.0614L36.4517 21.0537L39.7279 20.8715L39.4503 15.8792L39.1726 10.8869L35.8965 11.0691L36.1741 16.0614ZM39.4503 15.8792L34.458 16.1569L34.5699 18.1694L39.5622 17.8917L44.5545 17.6141L44.4426 15.6016L39.4503 15.8792ZM39.5622 17.8917L39.8398 22.884L39.9881 22.8758L39.7104 17.8835L39.4328 12.8912L39.2846 12.8994L39.5622 17.8917ZM39.7104 17.8835L44.3745 19.6852C44.3416 19.7704 44.3129 19.8245 44.3 19.8472C44.2872 19.8697 44.2876 19.8658 44.3097 19.8358L40.2876 16.8655L36.2655 13.8952C35.7994 14.5263 35.3658 15.2548 35.0463 16.0818L39.7104 17.8835ZM40.2876 16.8655L44.305 19.8421C44.1018 20.1165 43.8974 20.2556 43.8138 20.3034L41.3328 15.9623L38.8519 11.6212C37.8986 12.166 36.9975 12.9073 36.2702 13.8889L40.2876 16.8655ZM41.3328 15.9623L43.8336 20.292C43.4114 20.5359 43.1455 20.5249 43.2763 20.5177L42.9986 15.5254L42.721 10.5331C41.51 10.6004 40.1336 10.8808 38.832 11.6327L41.3328 15.9623ZM42.9986 15.5254L43.2763 20.5177C43.2764 20.5177 43.2736 20.5178 43.2681 20.5178C43.2625 20.5177 43.2547 20.5174 43.2448 20.5166C43.2244 20.515 43.1994 20.5115 43.1717 20.5053C43.1115 20.4918 43.0718 20.4729 43.0612 20.4671L45.4549 16.0773L47.8487 11.6876C46.2629 10.8228 44.5183 10.4331 42.721 10.5331L42.9986 15.5254ZM45.4549 16.0773L43.0836 20.4793C43.0407 20.4561 43.0018 20.4307 42.9686 20.4053C42.9356 20.3801 42.9132 20.3589 42.901 20.3462C42.8761 20.3205 42.9044 20.342 42.965 20.4515L47.3397 18.0304L51.7144 15.6093C50.8394 14.0282 49.5714 12.6156 47.8263 11.6754L45.4549 16.0773ZM47.3397 18.0304L42.9704 20.4613C42.9881 20.493 43.1524 20.8225 43.2009 21.6955L48.1932 21.4179L53.1855 21.1403C53.0813 19.2675 52.6766 17.3387 51.709 15.5995L47.3397 18.0304ZM48.1932 21.4179L43.2009 21.6955C43.2468 22.5199 43.1304 22.886 43.0962 22.9711L47.734 24.8393L52.3719 26.7075C53.0985 24.9037 53.2883 22.9889 53.1855 21.1403L48.1932 21.4179ZM47.734 24.8393L43.0915 22.9826C43.0479 23.0917 43.0234 23.1167 43.0415 23.0926C43.0502 23.081 43.0664 23.0612 43.0909 23.0369C43.1156 23.0126 43.1441 22.9882 43.1752 22.9658L46.1026 27.0192L49.03 31.0726C50.6212 29.9235 51.7035 28.3789 52.3765 26.696L47.734 24.8393ZM46.1026 27.0192L43.1825 22.9605C43.2156 22.9367 43.2685 22.907 43.3312 22.8853C43.3922 22.8642 43.4217 22.8648 43.399 22.866L43.6767 27.8583L43.9543 32.8506C45.7699 32.7496 47.5049 32.1699 49.0226 31.0779L46.1026 27.0192ZM43.6767 27.8583L43.399 22.866C43.285 22.8724 43.5035 22.8392 43.89 22.9958L42.013 27.63L40.1359 32.2643C41.451 32.797 42.7787 32.916 43.9543 32.8506L43.6767 27.8583ZM42.013 27.63L43.9108 23.0042C43.9791 23.0322 44.1862 23.1325 44.4188 23.3671L40.8684 26.8878L37.3181 30.4084C38.1586 31.256 39.1287 31.8512 40.1152 32.2559L42.013 27.63ZM40.8684 26.8878L44.4466 23.3954C44.4204 23.3686 44.4962 23.439 44.5908 23.6202L40.1581 25.9335L35.7255 28.2469C36.1587 29.077 36.708 29.7835 37.2903 30.3801L40.8684 26.8878ZM40.1581 25.9335L39.8805 20.9413L39.7791 20.9469L40.0567 25.9392L40.3343 30.9315L40.4357 30.9258L40.1581 25.9335ZM40.0567 25.9392L35.0644 26.2168L35.421 32.6288L40.4133 32.3512L45.4056 32.0735L45.049 25.6615L40.0567 25.9392ZM40.4133 32.3512L40.1357 27.3589L36.8127 27.5437L37.0903 32.536L37.3679 37.5282L40.6909 37.3434L40.4133 32.3512ZM39.7601 21.8713L34.7678 22.1489C34.8323 23.3088 35.0603 24.5359 35.5789 25.7221L40.1601 23.7191L44.7414 21.7161C44.7746 21.7919 44.7807 21.8285 44.7766 21.8094C44.7722 21.7895 44.7594 21.721 44.7523 21.5936L39.7601 21.8713ZM40.1601 23.7191L35.5789 25.7221C36.1034 26.9218 36.9406 28.106 38.2061 28.9981L41.0872 24.9116L43.9682 20.8251C44.4519 21.1661 44.6711 21.5552 44.7414 21.7161L40.1601 23.7191ZM41.0872 24.9116L38.2414 29.0228C39.6632 30.007 41.2593 30.348 42.7542 30.2648L42.4765 25.2725L42.1989 20.2803C42.3857 20.2699 42.659 20.2807 42.9846 20.3653C43.3171 20.4516 43.642 20.5991 43.933 20.8005L41.0872 24.9116ZM42.4765 25.2725L42.7542 30.2648C44.2628 30.1809 45.8294 29.656 47.1411 28.4934L43.8247 24.7516L40.5083 21.0097C40.7784 20.7703 41.0901 20.5821 41.4169 20.4559C41.7366 20.3323 42.0111 20.2907 42.1989 20.2803L42.4765 25.2725ZM43.8247 24.7516L47.1727 28.4652C48.3189 27.4318 49.0133 26.1597 49.3933 24.8976L44.6055 23.4562L39.8178 22.0148C39.872 21.8349 40.0458 21.4264 40.4767 21.038L43.8247 24.7516ZM44.6055 23.4562L49.3853 24.9237C49.76 23.7034 49.856 22.474 49.7914 21.3134L44.7991 21.591L39.8069 21.8687C39.8198 22.1017 39.7867 22.1158 39.8257 21.9887L44.6055 23.4562ZM44.7991 21.591L49.7914 21.3134C49.7278 20.1694 49.5025 18.9677 49.0011 17.8038L44.409 19.7818L39.8169 21.7597C39.7873 21.6911 39.7816 21.6577 39.7851 21.6739C39.7888 21.691 39.8004 21.7527 39.8069 21.8687L44.7991 21.591ZM44.409 19.7818L49.0011 17.8038C48.478 16.5892 47.6372 15.4025 46.3713 14.5101L43.4902 18.5966L40.6092 22.6831C40.1251 22.3418 39.8968 21.9453 39.8169 21.7597L44.409 19.7818ZM43.4902 18.5966L46.3713 14.5101C44.9298 13.4938 43.3086 13.153 41.8072 13.2365L42.0848 18.2287L42.3625 23.221C42.1822 23.231 41.9092 23.2212 41.5797 23.135C41.2424 23.0467 40.909 22.8945 40.6092 22.6831L43.4902 18.5966ZM42.0848 18.2287L41.8072 13.2365C40.3403 13.318 38.7967 13.8125 37.4846 14.9354L40.7358 18.7341L43.9869 22.5328C43.7147 22.7658 43.4082 22.9429 43.096 23.0599C42.791 23.1741 42.5334 23.2115 42.3625 23.221L42.0848 18.2287ZM40.7358 18.7341L37.459 14.9575C36.2772 15.9829 35.5724 17.26 35.1829 18.5001L39.9532 19.9983L44.7235 21.4964C44.6708 21.6641 44.4878 22.0984 44.0125 22.5107L40.7358 18.7341ZM39.9532 19.9983L35.1829 18.5001C34.7931 19.7415 34.7034 20.9908 34.7678 22.1489L39.7601 21.8713L44.7523 21.5936C44.7452 21.466 44.7505 21.3985 44.7522 21.3816C44.7539 21.3657 44.7509 21.4091 44.7235 21.4964L39.9532 19.9983ZM55.8248 26.9871L50.8325 27.2648C50.9858 30.0219 53.3452 32.1327 56.1024 31.9794L55.8248 26.9871ZM55.1584 15.0056L54.8808 10.0133C52.1236 10.1667 50.0128 12.5261 50.1661 15.2833L55.1584 15.0056ZM58.38 14.8265L63.3723 14.5488C63.219 11.7917 60.8595 9.68084 58.1024 9.83418L58.38 14.8265ZM58.4963 16.917L53.504 17.1946C53.6573 19.9518 56.0168 22.0626 58.7739 21.9093L58.4963 16.917ZM58.6211 16.91L58.8987 21.9023C61.114 21.7791 62.9832 20.2108 63.4893 18.0505L58.6211 16.91ZM59.6272 15.164L62.8135 19.0173C62.8219 19.0103 62.8302 19.0034 62.8385 18.9964L59.6272 15.164ZM61.9136 14.4891L62.1742 9.4959L62.1742 9.4959L61.9136 14.4891ZM62.4254 14.5467L67.4177 14.2691C67.2903 11.9783 65.6202 10.0681 63.3669 9.63615L62.4254 14.5467ZM62.5894 17.4953L61.4208 22.3568C62.9576 22.7262 64.5785 22.3473 65.7922 21.3348C67.0059 20.3224 67.6694 18.7957 67.5817 17.2176L62.5894 17.4953ZM61.935 17.4065L61.5566 22.3921L61.935 17.4065ZM59.8826 17.7867L62.5251 22.0314C62.5317 22.0272 62.5383 22.0231 62.545 22.0189L59.8826 17.7867ZM59.0264 18.7106L54.5979 16.3892C54.59 16.4044 54.5821 16.4197 54.5743 16.435L59.0264 18.7106ZM59.1478 26.8023L59.4254 31.7946C62.1826 31.6413 64.2934 29.2818 64.14 26.5247L59.1478 26.8023ZM55.8248 26.9871L60.8171 26.7095L60.1507 14.728L55.1584 15.0056L50.1661 15.2833L50.8325 27.2648L55.8248 26.9871ZM55.1584 15.0056L55.4361 19.9979L58.6577 19.8188L58.38 14.8265L58.1024 9.83418L54.8808 10.0133L55.1584 15.0056ZM58.38 14.8265L53.3877 15.1041L53.504 17.1946L58.4963 16.917L63.4886 16.6393L63.3723 14.5488L58.38 14.8265ZM58.4963 16.917L58.7739 21.9093L58.8987 21.9023L58.6211 16.91L58.3434 11.9178L58.2186 11.9247L58.4963 16.917ZM58.6211 16.91L63.4893 18.0505C63.4833 18.076 63.4484 18.2109 63.3376 18.4031C63.222 18.6037 63.0486 18.8229 62.8135 19.0173L59.6272 15.164L56.441 11.3107C54.939 12.5527 54.125 14.1813 53.7529 15.7696L58.6211 16.91ZM59.6272 15.164L62.8385 18.9964C62.6785 19.1305 62.475 19.2563 62.2392 19.3476C62.0055 19.438 61.7993 19.4719 61.6513 19.4801L61.3736 14.4878L61.096 9.49555C59.3981 9.58998 57.7744 10.1933 56.416 11.3315L59.6272 15.164ZM61.3736 14.4878L61.6513 19.4801C61.6309 19.4813 61.6207 19.4812 61.6217 19.4812C61.6227 19.4812 61.6329 19.4813 61.6531 19.4823L61.9136 14.4891L62.1742 9.4959C61.8294 9.47791 61.4677 9.47488 61.096 9.49555L61.3736 14.4878ZM61.9136 14.4891L61.653 19.4823C61.6625 19.4828 61.6532 19.4826 61.6275 19.4797C61.6023 19.4769 61.553 19.4705 61.484 19.4573L62.4254 14.5467L63.3669 9.63615C62.941 9.5545 62.5347 9.51471 62.1742 9.4959L61.9136 14.4891ZM62.4254 14.5467L57.4331 14.8244L57.5971 17.7729L62.5894 17.4953L67.5817 17.2176L67.4177 14.2691L62.4254 14.5467ZM62.5894 17.4953L63.758 12.6338C63.2213 12.5048 62.6994 12.4501 62.3134 12.4208L61.935 17.4065L61.5566 22.3921C61.6215 22.3971 61.6446 22.4004 61.6345 22.3991C61.6283 22.3982 61.6075 22.3953 61.5746 22.3894C61.5423 22.3836 61.4896 22.3733 61.4208 22.3568L62.5894 17.4953ZM61.935 17.4065L62.3134 12.4208C61.8621 12.3866 61.3856 12.3745 60.8977 12.4017L61.1753 17.394L61.453 22.3862C61.4358 22.3872 61.4356 22.3866 61.4545 22.3869C61.4731 22.3872 61.5067 22.3884 61.5566 22.3921L61.935 17.4065ZM61.1753 17.394L60.8977 12.4017C59.6584 12.4706 58.3881 12.8198 57.2203 13.5544L59.8826 17.7867L62.545 22.0189C62.1231 22.2843 61.7146 22.3717 61.453 22.3862L61.1753 17.394ZM59.8826 17.7867L57.2402 13.542C56.1102 14.2454 55.2109 15.2199 54.5979 16.3892L59.0264 18.7106L63.4548 21.032C63.2474 21.4277 62.919 21.7862 62.5251 22.0314L59.8826 17.7867ZM59.0264 18.7106L54.5743 16.435C53.9243 17.7066 53.7086 19.0439 53.7785 20.3014L58.7708 20.0237L63.7631 19.7461C63.7786 20.0259 63.7333 20.4878 63.4785 20.9863L59.0264 18.7106ZM58.7708 20.0237L53.7785 20.3014L54.1555 27.08L59.1478 26.8023L64.14 26.5247L63.7631 19.7461L58.7708 20.0237ZM59.1478 26.8023L58.8701 21.81L55.5471 21.9948L55.8248 26.9871L56.1024 31.9794L59.4254 31.7946L59.1478 26.8023ZM65.8329 26.2584L64.029 30.9216C64.0403 30.926 64.0516 30.9303 64.0629 30.9346L65.8329 26.2584ZM64.3469 25.1439L60.3063 28.089C60.3175 28.1044 60.3288 28.1197 60.3402 28.1349L64.3469 25.1439ZM63.9952 21.4937L59.4709 19.3651L59.4709 19.3651L63.9952 21.4937ZM64.933 20.3461L61.9672 16.3206L61.9672 16.3206L64.933 20.3461ZM66.3335 19.6423L64.8103 14.8799L64.7991 14.8835L66.3335 19.6423ZM68.0175 19.2513L68.7734 24.1938C68.7864 24.1918 68.7994 24.1898 68.8124 24.1877L68.0175 19.2513ZM69.6912 18.9548L70.6888 23.8542C70.7082 23.8503 70.7277 23.8462 70.7471 23.842L69.6912 18.9548ZM70.6029 18.6067L67.5779 14.6256L67.5779 14.6256L70.6029 18.6067ZM70.325 16.846L67.2324 20.7748C67.2433 20.7834 67.2543 20.7919 67.2652 20.8004L70.325 16.846ZM67.5867 16.9905L70.7677 20.848C70.7799 20.838 70.792 20.8279 70.8041 20.8177L67.5867 16.9905ZM66.9393 18.0124L66.8119 23.0107C69.1882 23.0713 71.2787 21.4504 71.8119 19.1338L66.9393 18.0124ZM63.852 17.9337L58.9124 17.1591C58.6894 18.5809 59.0899 20.0297 60.0114 21.1352C60.9329 22.2406 62.286 22.8954 63.7246 22.932L63.852 17.9337ZM64.6675 15.9948L68.6288 19.0457C68.6337 19.0393 68.6386 19.0329 68.6435 19.0265L64.6675 15.9948ZM66.3696 14.6638L68.4646 19.2038C68.4702 19.2012 68.4759 19.1986 68.4815 19.1959L66.3696 14.6638ZM70.7968 14.2142L69.8258 19.119L69.8358 19.1209L70.7968 14.2142ZM72.4675 14.8489L69.8541 19.1116C69.8613 19.116 69.8686 19.1205 69.8759 19.1249L72.4675 14.8489ZM73.6688 16.0497L69.3986 18.6507C69.4022 18.6567 69.4059 18.6628 69.4096 18.6688L73.6688 16.0497ZM74.6336 25.9411L74.9112 30.9334C77.6684 30.78 79.7792 28.4206 79.6259 25.6635L74.6336 25.9411ZM71.4822 26.1163L66.4899 26.394C66.6433 29.1512 69.0027 31.262 71.7599 31.1086L71.4822 26.1163ZM71.3898 24.4549L76.3821 24.1772C76.2288 21.4201 73.8693 19.3092 71.1122 19.4626L71.3898 24.4549ZM71.2962 24.4601L71.0186 19.4678C69.1475 19.5718 67.4917 20.7134 66.729 22.4252L71.2962 24.4601ZM70.5791 25.4937L74.0673 29.0759C74.0781 29.0653 74.0889 29.0547 74.0997 29.044L70.5791 25.4937ZM69.4537 26.2213L71.3436 30.8504C71.3594 30.844 71.3751 30.8374 71.3909 30.8308L69.4537 26.2213ZM70.0017 23.8357L72.5305 28.1491C72.5462 28.1398 72.5619 28.1306 72.5775 28.1212L70.0017 23.8357ZM70.8389 22.991L66.4855 20.5318L66.4855 20.5318L70.8389 22.991ZM71.0251 20.5707L76.0174 20.293C75.9156 18.4623 74.8199 16.8342 73.1623 16.0504C71.5047 15.2667 69.5511 15.4531 68.0716 16.5362L71.0251 20.5707ZM70.6065 20.7817L72.2815 25.4928C72.3105 25.4825 72.3394 25.472 72.3682 25.4611L70.6065 20.7817ZM70.0141 20.9634L71.2002 25.8206C71.2364 25.8118 71.2726 25.8025 71.3086 25.7929L70.0141 20.9634ZM69.3498 21.1177L70.3147 26.0237C70.3519 26.0164 70.389 26.0086 70.426 26.0005L69.3498 21.1177ZM68.7461 21.2373L67.7653 16.3345C67.7592 16.3357 67.7531 16.3369 67.747 16.3382L68.7461 21.2373ZM67.7395 21.5672L69.9612 26.0464L69.9612 26.0464L67.7395 21.5672ZM67.089 22.1119L71.2051 24.9506C71.2163 24.9343 71.2275 24.9178 71.2386 24.9014L67.089 22.1119ZM67.4397 23.9156L64.72 28.1112C64.745 28.1274 64.7701 28.1433 64.7954 28.1591L67.4397 23.9156ZM67.8988 26.5425L67.6211 21.5503C67.5272 21.5555 67.4868 21.5496 67.4903 21.55C67.4921 21.5503 67.5039 21.552 67.5241 21.5571C67.5444 21.5622 67.5712 21.5701 67.603 21.5822L65.8329 26.2584L64.0629 30.9346C65.4295 31.4519 66.8311 31.6097 68.1764 31.5348L67.8988 26.5425ZM65.8329 26.2584L67.6368 21.5951C67.7312 21.6316 67.8609 21.6964 68.0016 21.8019C68.1434 21.9082 68.2623 22.0306 68.3536 22.1528L64.3469 25.1439L60.3402 28.1349C61.3042 29.4263 62.5772 30.36 64.029 30.9216L65.8329 26.2584ZM64.3469 25.1439L68.3874 22.1987C68.7097 22.6409 68.718 22.9829 68.7142 22.9135L63.7219 23.1912L58.7296 23.4688C58.8136 24.9803 59.2386 26.6242 60.3063 28.089L64.3469 25.1439ZM63.7219 23.1912L68.7142 22.9135C68.71 22.8394 68.7423 23.1486 68.5195 23.6223L63.9952 21.4937L59.4709 19.3651C58.8096 20.7708 58.6597 22.2117 58.7296 23.4688L63.7219 23.1912ZM63.9952 21.4937L68.5195 23.6223C68.4623 23.744 68.3795 23.882 68.2659 24.021C68.152 24.1604 68.0257 24.278 67.8987 24.3716L64.933 20.3461L61.9672 16.3206C60.8774 17.1236 60.0361 18.164 59.4709 19.3651L63.9952 21.4937ZM64.933 20.3461L67.8987 24.3716C67.8663 24.3955 67.8424 24.4086 67.8327 24.4134C67.8235 24.418 67.8333 24.4122 67.868 24.401L66.3335 19.6423L64.7991 14.8835C63.8088 15.2028 62.8487 15.6712 61.9672 16.3206L64.933 20.3461ZM66.3335 19.6423L67.8567 24.4046C68.1233 24.3193 68.4269 24.2468 68.7734 24.1938L68.0175 19.2513L67.2617 14.3087C66.4289 14.4361 65.6098 14.6242 64.8103 14.8799L66.3335 19.6423ZM68.0175 19.2513L68.8124 24.1877C69.5369 24.071 70.1702 23.9598 70.6888 23.8542L69.6912 18.9548L68.6936 14.0553C68.3662 14.1219 67.8838 14.2084 67.2226 14.3149L68.0175 19.2513ZM69.6912 18.9548L70.7471 23.842C71.3733 23.7067 72.5529 23.4047 73.6279 22.5878L70.6029 18.6067L67.5779 14.6256C67.9816 14.3189 68.3228 14.1777 68.453 14.128C68.6 14.0719 68.6743 14.0591 68.6352 14.0675L69.6912 18.9548ZM70.6029 18.6067L73.6279 22.5878C75.2801 21.3324 75.9475 19.4588 75.8517 17.7358L70.8594 18.0134L65.8672 18.2911C65.839 17.7855 65.8993 17.1022 66.2165 16.3686C66.5418 15.6163 67.0421 15.0327 67.5779 14.6256L70.6029 18.6067ZM70.8594 18.0134L75.8517 17.7358L75.8491 17.689L70.8568 17.9666L65.8646 18.2443L65.8672 18.2911L70.8594 18.0134ZM70.8568 17.9666L75.8491 17.689C75.7585 16.0591 75.0848 14.2069 73.3848 12.8915L70.325 16.846L67.2652 20.8004C66.8076 20.4463 66.4343 19.9826 66.1861 19.4596C65.9481 18.958 65.8799 18.5197 65.8646 18.2443L70.8568 17.9666ZM70.325 16.846L73.4177 12.9172C71.8253 11.6637 70.0275 11.4479 68.7144 11.521L68.992 16.5132L69.2696 21.5055C69.0902 21.5155 68.1811 21.5216 67.2324 20.7748L70.325 16.846ZM68.992 16.5132L68.7144 11.521C67.4128 11.5933 65.7846 11.9733 64.3692 13.1632L67.5867 16.9905L70.8041 20.8177C70.0664 21.4379 69.3751 21.4997 69.2696 21.5055L68.992 16.5132ZM67.5867 16.9905L64.4056 13.1329C63.2772 14.0634 62.4232 15.3417 62.0667 16.8909L66.9393 18.0124L71.8119 19.1338C71.7341 19.4718 71.5956 19.8136 71.3942 20.1315C71.1948 20.4462 70.9693 20.6818 70.7677 20.848L67.5867 16.9905ZM66.9393 18.0124L67.0667 13.014L63.9794 12.9353L63.852 17.9337L63.7246 22.932L66.8119 23.0107L66.9393 18.0124ZM63.852 17.9337L68.7917 18.7082C68.7907 18.7145 68.7821 18.762 68.7515 18.8349C68.7202 18.9092 68.6774 18.9825 68.6288 19.0457L64.6675 15.9948L60.7062 12.9439C59.7339 14.2062 59.1494 15.6473 58.9124 17.1591L63.852 17.9337ZM64.6675 15.9948L68.6435 19.0265C68.5932 19.0924 68.5392 19.1445 68.4938 19.1801C68.45 19.2143 68.4334 19.2181 68.4646 19.2038L66.3696 14.6638L64.2747 10.1239C62.9052 10.7558 61.6636 11.6882 60.6915 12.963L64.6675 15.9948ZM66.3696 14.6638L68.4815 19.1959C68.5051 19.185 68.6927 19.1042 69.1503 19.0787L68.8727 14.0864L68.5951 9.09415C67.139 9.17513 65.6579 9.47927 64.2578 10.1317L66.3696 14.6638ZM68.8727 14.0864L69.1503 19.0787C69.4226 19.0636 69.6434 19.0829 69.8258 19.119L70.7968 14.2142L71.7678 9.30936C70.716 9.10114 69.654 9.03526 68.5951 9.09415L68.8727 14.0864ZM70.7968 14.2142L69.8358 19.1209C69.8869 19.131 69.9078 19.1392 69.9053 19.1383C69.9043 19.1379 69.8986 19.1357 69.8892 19.1311C69.8798 19.1265 69.8678 19.12 69.8541 19.1116L72.4675 14.8489L75.0808 10.5863C74.033 9.94386 72.9065 9.53236 71.7578 9.30739L70.7968 14.2142ZM72.4675 14.8489L69.8759 19.1249C69.7902 19.0729 69.6962 19.0018 69.6056 18.9113C69.5151 18.8208 69.4467 18.7297 69.3986 18.6507L73.6688 16.0497L77.939 13.4487C77.2207 12.2694 76.2465 11.2927 75.0591 10.573L72.4675 14.8489ZM73.6688 16.0497L69.4096 18.6688C69.1895 18.3108 69.1879 18.0661 69.1919 18.1375L74.1842 17.8598L79.1765 17.5822C79.1012 16.2286 78.756 14.7772 77.928 13.4307L73.6688 16.0497ZM74.1842 17.8598L69.1919 18.1375L69.6413 26.2187L74.6336 25.9411L79.6259 25.6635L79.1765 17.5822L74.1842 17.8598ZM74.6336 25.9411L74.356 20.9488L71.2046 21.1241L71.4822 26.1163L71.7599 31.1086L74.9112 30.9334L74.6336 25.9411ZM71.4822 26.1163L76.4745 25.8387L76.3821 24.1772L71.3898 24.4549L66.3975 24.7325L66.4899 26.394L71.4822 26.1163ZM71.3898 24.4549L71.1122 19.4626L71.0186 19.4678L71.2962 24.4601L71.5738 29.4523L71.6675 29.4471L71.3898 24.4549ZM71.2962 24.4601L66.729 22.4252C66.8155 22.2311 66.9359 22.0648 67.0584 21.9433L70.5791 25.4937L74.0997 29.044C74.8352 28.3147 75.4338 27.4593 75.8634 26.4949L71.2962 24.4601ZM70.5791 25.4937L67.0909 21.9114C67.2841 21.7232 67.454 21.6381 67.5165 21.6119L69.4537 26.2213L71.3909 30.8308C72.3403 30.4318 73.2604 29.8616 74.0673 29.0759L70.5791 25.4937ZM69.4537 26.2213L67.5638 21.5923C67.6534 21.5557 67.71 21.5431 67.7206 21.5409C67.7305 21.5389 67.7002 21.5459 67.6211 21.5503L67.8988 26.5425L68.1764 31.5348C69.1961 31.4781 70.2804 31.2845 71.3436 30.8504L69.4537 26.2213ZM68.7229 24.1963L69.0005 29.1886C70.1549 29.1244 71.3783 28.8246 72.5305 28.1491L70.0017 23.8357L67.473 19.5223C67.8978 19.2732 68.2686 19.2138 68.4453 19.204L68.7229 24.1963ZM70.0017 23.8357L72.5775 28.1212C73.6269 27.4904 74.5426 26.6004 75.1924 25.4502L70.8389 22.991L66.4855 20.5318C66.7458 20.071 67.1034 19.744 67.426 19.5502L70.0017 23.8357ZM70.8389 22.991L75.1924 25.4502C75.8886 24.2176 76.161 22.8747 76.0881 21.5645L71.0958 21.8421L66.1036 22.1198C66.0775 21.652 66.1787 21.075 66.4855 20.5318L70.8389 22.991ZM71.0958 21.8421L76.0881 21.5645L76.0174 20.293L71.0251 20.5707L66.0328 20.8483L66.1036 22.1198L71.0958 21.8421ZM71.0251 20.5707L68.0716 16.5362C68.2914 16.3753 68.478 16.2725 68.5942 16.2139C68.714 16.1535 68.8026 16.1183 68.8448 16.1024L70.6065 20.7817L72.3682 25.4611C72.7699 25.3099 73.3716 25.0496 73.9786 24.6051L71.0251 20.5707ZM70.6065 20.7817L68.9315 16.0707C68.9082 16.0789 68.8413 16.1012 68.7196 16.1338L70.0141 20.9634L71.3086 25.7929C71.629 25.707 71.957 25.6082 72.2815 25.4928L70.6065 20.7817ZM70.0141 20.9634L68.828 16.1061C68.6431 16.1512 68.4583 16.1941 68.2736 16.2349L69.3498 21.1177L70.426 26.0005C70.6844 25.9435 70.9425 25.8836 71.2002 25.8206L70.0141 20.9634ZM69.3498 21.1177L68.3849 16.2117C68.1588 16.2561 67.9522 16.2971 67.7653 16.3345L68.7461 21.2373L69.727 26.1402C69.9012 26.1053 70.097 26.0665 70.3147 26.0237L69.3498 21.1177ZM68.7461 21.2373L67.747 16.3382C67.0347 16.4834 66.2704 16.7145 65.5177 17.0879L67.7395 21.5672L69.9612 26.0464C69.8661 26.0936 69.7962 26.1189 69.7612 26.1304C69.7262 26.1419 69.7188 26.1419 69.7453 26.1365L68.7461 21.2373ZM67.7395 21.5672L65.5177 17.0879C64.5997 17.5432 63.6565 18.2558 62.9394 19.3225L67.089 22.1119L71.2386 24.9014C70.8203 25.5237 70.3106 25.8731 69.9612 26.0464L67.7395 21.5672ZM67.089 22.1119L62.973 19.2732C62.0825 20.5644 61.8312 21.9769 61.8983 23.1831L66.8906 22.9054L71.8829 22.6278C71.9152 23.2099 71.7963 24.0934 71.2051 24.9506L67.089 22.1119ZM66.8906 22.9054L61.8983 23.1831C62.0003 25.0171 62.8706 26.9123 64.72 28.1112L67.4397 23.9156L70.1594 19.7199C70.6452 20.0349 71.1088 20.5008 71.4396 21.1092C71.7604 21.6994 71.8618 22.2483 71.8829 22.6278L66.8906 22.9054ZM67.4397 23.9156L64.7954 28.1591C66.2135 29.0428 67.7245 29.2595 69.0005 29.1886L68.7229 24.1963L68.4453 19.204C68.7021 19.1897 69.3576 19.2193 70.084 19.672L67.4397 23.9156ZM82.9183 13.4618L87.9106 13.1842C87.7572 10.427 85.3978 8.31619 82.6406 8.46952L82.9183 13.4618ZM83.0571 15.958L83.3347 20.9502C86.0919 20.7969 88.2027 18.4375 88.0494 15.6803L83.0571 15.958ZM75.8417 16.3592L70.8494 16.6369C71.0027 19.394 73.3622 21.5048 76.1193 21.3515L75.8417 16.3592ZM75.7029 13.8631L75.4252 8.8708C72.6681 9.02413 70.5572 11.3836 70.7106 14.1407L75.7029 13.8631ZM77.1813 10.9014L76.9037 5.90913C74.1465 6.06247 72.0357 8.42189 72.189 11.1791L77.1813 10.9014ZM80.5043 10.7166L85.4966 10.439C85.3433 7.68181 82.9838 5.57099 80.2267 5.72433L80.5043 10.7166ZM81.3058 22.5967L77.0561 25.231C77.0675 25.2495 77.0791 25.2679 77.0908 25.2862L81.3058 22.5967ZM81.7154 22.926L80.0936 27.6557C80.1104 27.6614 80.1271 27.6671 80.1439 27.6726L81.7154 22.926ZM82.7797 22.9294L83.8743 27.8081C83.9267 27.7964 83.979 27.7838 84.031 27.7703L82.7797 22.9294ZM83.1346 22.8393L87.9616 21.5353C87.2531 18.9126 84.58 17.3355 81.9417 17.9836L83.1346 22.8393ZM83.7948 25.2829L85.5489 29.9652C87.9635 29.0606 89.2942 26.4682 88.6217 23.979L83.7948 25.2829ZM83.1027 25.5014L81.7399 20.6907C81.7137 20.6981 81.6875 20.7058 81.6614 20.7136L83.1027 25.5014ZM82.0102 25.6952L81.5524 20.7161L81.5384 20.7175L82.0102 25.6952ZM79.8863 25.4925L78.2546 30.2187C78.2594 30.2204 78.2642 30.222 78.2689 30.2237L79.8863 25.4925ZM78.4267 24.4313L82.4685 21.4878L82.4685 21.4878L78.4267 24.4313ZM77.8268 22.5085L82.8208 22.2639C82.8203 22.2529 82.8197 22.2419 82.8191 22.2308L77.8268 22.5085ZM82.9183 13.4618L77.926 13.7394L78.0648 16.2356L83.0571 15.958L88.0494 15.6803L87.9106 13.1842L82.9183 13.4618ZM83.0571 15.958L82.7795 10.9657L75.564 11.3669L75.8417 16.3592L76.1193 21.3515L83.3347 20.9502L83.0571 15.958ZM75.8417 16.3592L80.834 16.0816L80.6951 13.5854L75.7029 13.8631L70.7106 14.1407L70.8494 16.6369L75.8417 16.3592ZM75.7029 13.8631L75.9805 18.8554L83.1959 18.4541L82.9183 13.4618L82.6406 8.46952L75.4252 8.8708L75.7029 13.8631ZM77.1813 10.9014L77.459 15.8937L80.7819 15.7089L80.5043 10.7166L80.2267 5.72433L76.9037 5.90913L77.1813 10.9014ZM80.5043 10.7166L75.512 10.9943L76.1332 22.1645L81.1255 21.8869L86.1178 21.6092L85.4966 10.439L80.5043 10.7166ZM81.1255 21.8869L76.1332 22.1645C76.1728 22.876 76.3303 24.0601 77.0561 25.231L81.3058 22.5967L85.5556 19.9624C85.8303 20.4055 85.9634 20.8031 86.0295 21.0634C86.096 21.3254 86.1128 21.5193 86.1178 21.6092L81.1255 21.8869ZM81.3058 22.5967L77.0908 25.2862C77.7612 26.3368 78.7829 27.2063 80.0936 27.6557L81.7154 22.926L83.3371 18.1963C84.3075 18.5291 85.0562 19.179 85.5209 19.9072L81.3058 22.5967ZM81.7154 22.926L80.1439 27.6726C81.0265 27.9649 81.8709 28.0268 82.5915 27.9867L82.3139 22.9945L82.0362 18.0022C82.3095 17.987 82.755 18.0033 83.2869 18.1794L81.7154 22.926ZM82.3139 22.9945L82.5915 27.9867C83.0263 27.9626 83.4547 27.9023 83.8743 27.8081L82.7797 22.9294L81.6851 18.0507C81.7956 18.0259 81.9135 18.009 82.0362 18.0022L82.3139 22.9945ZM82.7797 22.9294L84.031 27.7703C84.1795 27.7319 84.2748 27.7078 84.3275 27.6949L83.1346 22.8393L81.9417 17.9836C81.8298 18.0111 81.6884 18.0472 81.5284 18.0885L82.7797 22.9294ZM83.1346 22.8393L78.3077 24.1432L78.9678 26.5869L83.7948 25.2829L88.6217 23.979L87.9616 21.5353L83.1346 22.8393ZM83.7948 25.2829L82.0407 20.6007C82.0656 20.5914 82.0549 20.5962 81.994 20.6154C81.9368 20.6335 81.8536 20.6585 81.7399 20.6907L83.1027 25.5014L84.4655 30.3121C84.8115 30.2141 85.1949 30.0977 85.5489 29.9652L83.7948 25.2829ZM83.1027 25.5014L81.6614 20.7136C81.7303 20.6929 81.7583 20.6894 81.7332 20.6939C81.7095 20.6981 81.6513 20.7071 81.5524 20.7162L82.0102 25.6952L82.468 30.6742C83.1131 30.6149 83.8286 30.5045 84.544 30.2892L83.1027 25.5014ZM82.0102 25.6952L81.5384 20.7175C81.4143 20.7292 81.3569 20.7241 81.3549 20.7239C81.3545 20.7239 81.3683 20.7252 81.3944 20.7307C81.4207 20.7362 81.4578 20.7456 81.5037 20.7613L79.8863 25.4925L78.2689 30.2237C79.6933 30.7106 81.1362 30.8004 82.482 30.6729L82.0102 25.6952ZM79.8863 25.4925L81.518 20.7662C81.6444 20.8099 81.8171 20.8895 82.003 21.0247C82.1909 21.1613 82.3482 21.3227 82.4685 21.4878L78.4267 24.4313L74.3849 27.3747C75.3819 28.7438 76.7313 29.6929 78.2546 30.2187L79.8863 25.4925ZM78.4267 24.4313L82.4685 21.4878C82.8219 21.9731 82.8249 22.3475 82.8208 22.2639L77.8268 22.5085L72.8328 22.7531C72.9057 24.2406 73.3086 25.8967 74.3849 27.3747L78.4267 24.4313ZM77.8268 22.5085L82.8191 22.2308L82.1736 10.6238L77.1813 10.9014L72.189 11.1791L72.8345 22.7861L77.8268 22.5085ZM87.8696 24.6886L85.6366 29.1622C85.647 29.1674 85.6574 29.1726 85.6678 29.1777L87.8696 24.6886ZM85.707 22.6649L81.3996 25.2038L81.4054 25.2137L85.707 22.6649ZM85.3439 16.1359L80.7769 14.1008L80.7769 14.1008L85.3439 16.1359ZM87.2432 13.8472L84.4512 9.6994L84.4403 9.70677L87.2432 13.8472ZM92.502 13.1557L91.013 17.9289C91.0276 17.9334 91.0422 17.9379 91.0568 17.9423L92.502 13.1557ZM94.359 14.187L91.0444 17.9305C91.0507 17.9361 91.0571 17.9417 91.0634 17.9472L94.359 14.187ZM95.6661 16.0235L91.0877 18.033L91.0922 18.0433L95.6661 16.0235ZM96.2943 19.5801L96.5719 24.5724C99.3291 24.419 101.44 22.0596 101.287 19.3024L96.2943 19.5801ZM86.1771 20.1427L81.1848 20.4204C81.3381 23.1775 83.6976 25.2883 86.4547 25.135L86.1771 20.1427ZM86.0626 18.0834L85.7849 13.0911C83.0278 13.2445 80.9169 15.6039 81.0703 18.361L86.0626 18.0834ZM93.0518 17.6947L93.3294 22.687C96.0866 22.5337 98.1974 20.1742 98.0441 17.4171L93.0518 17.6947ZM92.669 16.4406L88.4558 19.1329L88.4558 19.1329L92.669 16.4406ZM91.755 15.6229L89.4715 20.071C89.4964 20.0838 89.5214 20.0963 89.5465 20.1087L91.755 15.6229ZM89.1436 15.7994L91.9337 19.9486C91.9392 19.9449 91.9447 19.9412 91.9502 19.9374L89.1436 15.7994ZM88.2904 16.778L92.7692 19.0008C92.7734 18.9922 92.7776 18.9836 92.7818 18.975L88.2904 16.778ZM88.0265 18.0837L83.0315 18.3065C83.0323 18.3248 83.0332 18.3431 83.0343 18.3614L88.0265 18.0837ZM88.5485 21.5601L84.2194 24.0619C84.2274 24.0757 84.2354 24.0894 84.2435 24.1031L88.5485 21.5601ZM92.0159 22.5644L90.1502 17.9255L90.1502 17.9255L92.0159 22.5644ZM92.7777 22.0526L89.1337 18.629L89.1337 18.629L92.7777 22.0526ZM93.2344 21.2604L93.2861 16.2607C91.0878 16.2379 89.1325 17.6538 88.4682 19.7494L93.2344 21.2604ZM96.3191 21.2923L101.261 22.0526C101.481 20.6196 101.069 19.1615 100.131 18.0563C99.1924 16.9511 97.8205 16.3075 96.3708 16.2925L96.3191 21.2923ZM95.4672 23.2801L91.5314 20.1964L91.5294 20.199L95.4672 23.2801ZM93.6818 24.6627L95.7937 29.1948C95.7991 29.1923 95.8044 29.1898 95.8097 29.1873L93.6818 24.6627ZM91.0938 25.2604L90.8162 20.2681C90.2618 20.299 90.0732 20.2004 90.0714 20.1995L87.8696 24.6886L85.6678 29.1777C87.5 30.0763 89.4609 30.359 91.3715 30.2527L91.0938 25.2604ZM87.8696 24.6886L90.1026 20.2149C90.0812 20.2042 90.0701 20.1969 90.0663 20.1942C90.0625 20.1916 90.0615 20.1906 90.0612 20.1904C90.0609 20.1901 90.0571 20.1865 90.0496 20.1771C90.042 20.1676 90.0278 20.1485 90.0086 20.1161L85.707 22.6649L81.4054 25.2137C82.4152 26.9179 83.8469 28.2689 85.6366 29.1622L87.8696 24.6886ZM85.707 22.6649L90.0145 20.126C89.9677 20.0467 89.8343 19.777 89.7991 19.1432L84.8068 19.4208L79.8145 19.6985C79.9198 21.592 80.3865 23.485 81.3996 25.2038L85.707 22.6649ZM84.8068 19.4208L89.7991 19.1432C89.7668 18.5639 89.8608 18.2838 89.911 18.1711L85.3439 16.1359L80.7769 14.1008C79.9738 15.9029 79.7096 17.8128 79.8145 19.6985L84.8068 19.4208ZM85.3439 16.1359L89.911 18.1711C89.9492 18.0854 89.9777 18.0492 89.9864 18.0387C89.9944 18.029 90.0087 18.0131 90.0462 17.9877L87.2432 13.8472L84.4403 9.70677C82.8006 10.8168 81.5699 12.3211 80.7769 14.1008L85.3439 16.1359ZM87.2432 13.8472L90.0353 17.9951C90.0427 17.9901 90.0676 17.9737 90.1315 17.9536C90.1994 17.9323 90.3318 17.9008 90.5509 17.8886L90.2732 12.8963L89.9956 7.904C88.0638 8.01143 86.1527 8.55405 84.4512 9.69942L87.2432 13.8472ZM90.2732 12.8963L90.5509 17.8886C90.796 17.8749 90.9363 17.9049 91.013 17.9289L92.502 13.1557L93.991 8.38258C92.6769 7.97267 91.3313 7.82971 89.9956 7.904L90.2732 12.8963ZM92.502 13.1557L91.0568 17.9423C91.0625 17.944 91.0664 17.9454 91.0689 17.9463C91.0714 17.9472 91.0726 17.9477 91.0726 17.9477C91.0727 17.9477 91.0718 17.9473 91.0702 17.9466C91.0686 17.9458 91.0665 17.9447 91.064 17.9433C91.0587 17.9404 91.0536 17.9371 91.0492 17.934C91.0448 17.9309 91.0432 17.9294 91.0444 17.9305L94.359 14.187L97.6736 10.4436C96.5851 9.47977 95.3254 8.78524 93.9472 8.36914L92.502 13.1557ZM94.359 14.187L91.0634 17.9472C91.0313 17.9191 91.0174 17.8995 91.0194 17.9023C91.0225 17.9067 91.0489 17.9447 91.0877 18.033L95.6661 16.0235L100.245 14.0141C99.6608 12.6841 98.8168 11.4454 97.6546 10.4268L94.359 14.187ZM95.6661 16.0235L91.0922 18.0433C91.1239 18.1149 91.2198 18.3791 91.2512 18.9451L96.2435 18.6674L101.236 18.3898C101.154 16.9172 100.865 15.4188 100.24 14.0038L95.6661 16.0235ZM96.2435 18.6674L91.2512 18.9451L91.302 19.8577L96.2943 19.5801L101.287 19.3024L101.236 18.3898L96.2435 18.6674ZM96.2943 19.5801L96.0166 14.5878L85.8995 15.1504L86.1771 20.1427L86.4547 25.135L96.5719 24.5724L96.2943 19.5801ZM86.1771 20.1427L91.1694 19.8651L91.0548 17.8058L86.0626 18.0834L81.0703 18.361L81.1848 20.4204L86.1771 20.1427ZM86.0626 18.0834L86.3402 23.0757L93.3294 22.687L93.0518 17.6947L92.7741 12.7024L85.7849 13.0911L86.0626 18.0834ZM93.0518 17.6947L98.0441 17.4171C97.976 16.1928 97.631 14.9199 96.8823 13.7483L92.669 16.4406L88.4558 19.1329C88.1642 18.6766 88.0744 18.2398 88.0595 17.9723L93.0518 17.6947ZM92.669 16.4406L96.8823 13.7483C96.1619 12.6209 95.1639 11.7281 93.9636 11.1371L91.755 15.6229L89.5465 20.1087C89.1078 19.8927 88.7191 19.545 88.4558 19.1329L92.669 16.4406ZM91.755 15.6229L94.0386 11.1748C92.7627 10.5198 91.4267 10.3126 90.1881 10.3815L90.4658 15.3738L90.7434 20.3661C90.4721 20.3812 89.9957 20.3401 89.4715 20.071L91.755 15.6229ZM90.4658 15.3738L90.1881 10.3815C88.8803 10.4542 87.5439 10.8429 86.337 11.6614L89.1436 15.7994L91.9502 19.9374C91.4974 20.2446 91.0424 20.3494 90.7434 20.3661L90.4658 15.3738ZM89.1436 15.7994L86.3535 11.6503C85.2539 12.3897 84.3821 13.3887 83.7989 14.581L88.2904 16.778L92.7818 18.975C92.5921 19.363 92.2891 19.7096 91.9337 19.9486L89.1436 15.7994ZM88.2904 16.778L83.8116 14.5552C83.2122 15.7631 82.9754 17.0479 83.0315 18.3065L88.0265 18.0837L93.0216 17.861C93.0355 18.1725 92.9746 18.5868 92.7692 19.0008L88.2904 16.778ZM88.0265 18.0837L83.0343 18.3614L83.1432 20.3193L88.1354 20.0416L93.1277 19.764L93.0188 17.8061L88.0265 18.0837ZM88.1354 20.0416L83.1432 20.3193C83.21 21.5215 83.5059 22.8271 84.2194 24.0619L88.5485 21.5601L92.8776 19.0583C93.1063 19.4541 93.1268 19.7475 93.1277 19.764L88.1354 20.0416ZM88.5485 21.5601L84.2435 24.1031C84.9577 25.3121 85.9884 26.3098 87.2936 26.9691L89.5479 22.5061L91.8022 18.0431C92.0155 18.1509 92.228 18.2968 92.4212 18.4797C92.6134 18.6617 92.7548 18.8499 92.8535 19.0171L88.5485 21.5601ZM89.5479 22.5061L87.2936 26.9691C88.631 27.6445 90.0214 27.8396 91.2881 27.7691L91.0105 22.7768L90.7329 17.7846C90.8867 17.776 91.3021 17.7905 91.8022 18.0431L89.5479 22.5061ZM91.0105 22.7768L91.2881 27.7691C92.1275 27.7224 93.0087 27.5543 93.8815 27.2033L92.0159 22.5644L90.1502 17.9255C90.421 17.8167 90.632 17.7902 90.7329 17.7846L91.0105 22.7768ZM92.0159 22.5644L93.8815 27.2033C94.8058 26.8316 95.6812 26.2644 96.4217 25.4762L92.7777 22.0526L89.1337 18.629C89.4605 18.2811 89.828 18.0551 90.1502 17.9255L92.0159 22.5644ZM92.7777 22.0526L96.4217 25.4762C97.1762 24.6731 97.6929 23.7422 98.0007 22.7713L93.2344 21.2604L88.4682 19.7494C88.5807 19.3945 88.7928 18.9918 89.1337 18.629L92.7777 22.0526ZM93.2344 21.2604L93.1827 26.2601L96.2674 26.292L96.3191 21.2923L96.3708 16.2925L93.2861 16.2607L93.2344 21.2604ZM96.3191 21.2923L91.3772 20.532C91.3806 20.5097 91.3924 20.454 91.4241 20.3801C91.4561 20.3055 91.4956 20.2421 91.5314 20.1964L95.4672 23.2801L99.403 26.3639C100.401 25.0901 101.02 23.6218 101.261 22.0526L96.3191 21.2923ZM95.4672 23.2801L91.5294 20.199C91.5482 20.1749 91.5671 20.154 91.5846 20.1366C91.6021 20.1194 91.6158 20.108 91.6235 20.102C91.6398 20.0894 91.6232 20.1055 91.5539 20.1381L93.6818 24.6627L95.8097 29.1873C97.1684 28.5483 98.4163 27.625 99.405 26.3613L95.4672 23.2801ZM93.6818 24.6627L91.57 20.1306C91.5194 20.1541 91.3029 20.2411 90.8162 20.2681L91.0938 25.2604L91.3715 30.2527C92.8609 30.1699 94.3697 29.8583 95.7937 29.1948L93.6818 24.6627ZM100.663 23.9849L98.1889 28.33C98.2008 28.3368 98.2128 28.3435 98.2247 28.3502L100.663 23.9849ZM98.7997 21.9994L94.3866 24.3498C94.3919 24.3599 94.3973 24.3699 94.4027 24.3799L98.7997 21.9994ZM98.4443 15.1883L103.056 17.1197L103.061 17.1094L98.4443 15.1883ZM100.093 13.0387L102.951 17.1416L102.959 17.136L100.093 13.0387ZM104.177 12.4673L102.15 17.0382C102.172 17.0475 102.193 17.0567 102.214 17.0658L104.177 12.4673ZM105.316 13.249L101.622 16.619C101.641 16.6397 101.66 16.6602 101.679 16.6806L105.316 13.249ZM106.01 14.1963L101.575 16.5041C102.482 18.2474 104.326 19.2977 106.288 19.1886L106.01 14.1963ZM106.112 14.1907L106.389 19.183C109.147 19.0296 111.257 16.6702 111.104 13.913L106.112 14.1907ZM105.778 8.18433L105.5 3.19205C102.743 3.34538 100.632 5.70481 100.785 8.46197L105.778 8.18433ZM109.093 7.99996L114.085 7.72233C113.932 4.96516 111.572 2.85434 108.815 3.00768L109.093 7.99996ZM109.981 23.9753L110.259 28.9676C113.016 28.8142 115.127 26.4548 114.974 23.6976L109.981 23.9753ZM106.705 24.1575L101.713 24.4351C101.866 27.1923 104.226 29.3031 106.983 29.1498L106.705 24.1575ZM106.598 22.2386L111.591 21.9609C111.437 19.2038 109.078 17.0929 106.321 17.2463L106.598 22.2386ZM106.458 22.2464L106.18 17.2541C104.244 17.3618 102.544 18.5797 101.82 20.3789L106.458 22.2464ZM105.85 23.2739L101.907 20.1998L101.903 20.2044L105.85 23.2739ZM104.795 24.1385L102.416 19.7409C102.409 19.7445 102.402 19.7481 102.396 19.7516L104.795 24.1385ZM105.414 21.3342L108.723 25.0821L108.73 25.0761L105.414 21.3342ZM106.203 20.0462L101.44 18.5226C101.436 18.5362 101.432 18.5499 101.428 18.5635L106.203 20.0462ZM106.004 16.325L110.578 14.3071L110.578 14.3071L106.004 16.325ZM105.078 15.1558L107.888 11.0201L105.078 15.1558ZM102.333 15.3241L99.0165 11.5823L99.0165 11.5823L102.333 15.3241ZM101.756 20.2779L97.151 22.2269C97.1587 22.245 97.1664 22.263 97.1743 22.2809L101.756 20.2779ZM102.675 21.4787L99.7318 25.5206C99.7525 25.5356 99.7732 25.5505 99.7941 25.5652L102.675 21.4787ZM103.175 24.5494L102.897 19.5572C102.874 19.5584 102.901 19.5547 102.96 19.568C103.021 19.5816 103.072 19.6032 103.101 19.6196L100.663 23.9849L98.2247 28.3502C99.8516 29.2589 101.637 29.6427 103.452 29.5417L103.175 24.5494ZM100.663 23.9849L103.137 19.6398C103.17 19.6586 103.2 19.6791 103.225 19.6992C103.25 19.7191 103.266 19.735 103.273 19.7428C103.289 19.7592 103.257 19.73 103.197 19.6189L98.7997 21.9994L94.4027 24.3799C95.2578 25.9593 96.4948 27.3655 98.1889 28.33L100.663 23.9849ZM98.7997 21.9994L103.213 19.6489C103.167 19.5622 103.01 19.2034 102.964 18.3719L97.9717 18.6496L92.9795 18.9272C93.0819 20.7687 93.4775 22.643 94.3866 24.3498L98.7997 21.9994ZM97.9717 18.6496L102.964 18.3719C102.915 17.4989 103.042 17.1532 103.056 17.1197L98.4443 15.1883L93.8324 13.2569C93.0637 15.0926 92.8753 17.0545 92.9795 18.9272L97.9717 18.6496ZM98.4443 15.1883L103.061 17.1094C103.11 16.99 103.138 16.9626 103.117 16.9891C103.107 17.0022 103.088 17.0254 103.058 17.0541C103.028 17.083 102.992 17.113 102.951 17.1415L100.093 13.0387L97.2354 8.9359C95.6137 10.0654 94.5186 11.608 93.8281 13.2672L98.4443 15.1883ZM100.093 13.0387L102.959 17.136C102.947 17.1445 102.908 17.1678 102.851 17.1875C102.794 17.207 102.758 17.2097 102.759 17.2097L102.481 12.2174L102.203 7.22508C100.407 7.325 98.7123 7.90287 97.2274 8.94148L100.093 13.0387ZM102.481 12.2174L102.759 17.2097C102.893 17.2022 102.616 17.2444 102.15 17.0382L104.177 12.4673L106.204 7.89649C104.819 7.28234 103.411 7.15792 102.203 7.22508L102.481 12.2174ZM104.177 12.4673L102.214 17.0658C102.124 17.0272 101.88 16.9018 101.622 16.619L105.316 13.249L109.01 9.87904C108.163 8.95093 107.16 8.30432 106.14 7.86882L104.177 12.4673ZM105.316 13.249L101.679 16.6806C101.703 16.7056 101.701 16.7058 101.681 16.6795C101.662 16.6531 101.622 16.5949 101.575 16.5041L106.01 14.1963L110.446 11.8885C110.027 11.0829 109.499 10.3964 108.953 9.81746L105.316 13.249ZM106.01 14.1963L106.288 19.1886L106.389 19.183L106.112 14.1907L105.834 9.19839L105.733 9.20403L106.01 14.1963ZM106.112 14.1907L111.104 13.913L110.77 7.9067L105.778 8.18433L100.785 8.46197L101.119 14.4683L106.112 14.1907ZM105.778 8.18433L106.055 13.1766L109.371 12.9923L109.093 7.99996L108.815 3.00768L105.5 3.19205L105.778 8.18433ZM109.093 7.99996L104.101 8.2776L104.989 24.2529L109.981 23.9753L114.974 23.6976L114.085 7.72233L109.093 7.99996ZM109.981 23.9753L109.704 18.983L106.427 19.1652L106.705 24.1575L106.983 29.1498L110.259 28.9676L109.981 23.9753ZM106.705 24.1575L111.697 23.8798L111.591 21.9609L106.598 22.2386L101.606 22.5162L101.713 24.4351L106.705 24.1575ZM106.598 22.2386L106.321 17.2463L106.18 17.2541L106.458 22.2464L106.736 27.2387L106.876 27.2309L106.598 22.2386ZM106.458 22.2464L101.82 20.3789C101.885 20.2172 101.939 20.1589 101.907 20.1998L105.85 23.2739L109.793 26.348C110.297 25.7019 110.756 24.9586 111.096 24.1139L106.458 22.2464ZM105.85 23.2739L101.903 20.2044C102.131 19.9112 102.35 19.7767 102.416 19.7409L104.795 24.1385L107.174 28.5361C108.121 28.0236 109.043 27.3127 109.797 26.3434L105.85 23.2739ZM104.795 24.1385L102.396 19.7516C102.78 19.5417 103.014 19.5507 102.897 19.5572L103.175 24.5494L103.452 29.5417C104.625 29.4765 105.939 29.2115 107.194 28.5254L104.795 24.1385ZM104.081 21.8465L104.358 26.8388C105.852 26.7558 107.413 26.2394 108.723 25.0821L105.414 21.3342L102.104 17.5864C102.379 17.3437 102.694 17.1549 103.022 17.0289C103.342 16.9058 103.617 16.8646 103.803 16.8542L104.081 21.8465ZM105.414 21.3342L108.73 25.0761C109.889 24.0491 110.589 22.7794 110.978 21.5289L106.203 20.0462L101.428 18.5635C101.48 18.3959 101.654 17.9849 102.097 17.5924L105.414 21.3342ZM106.203 20.0462L110.965 21.5698C111.365 20.3198 111.461 19.0602 111.395 17.8874L106.403 18.165L101.411 18.4426C101.418 18.564 101.412 18.6266 101.411 18.6396C101.41 18.6517 101.413 18.6077 101.44 18.5226L106.203 20.0462ZM106.403 18.165L111.395 17.8874C111.331 16.7293 111.103 15.4976 110.578 14.3071L106.004 16.325L101.429 18.3428C101.392 18.2591 101.384 18.2163 101.387 18.2319C101.391 18.2485 101.404 18.315 101.411 18.4426L106.403 18.165ZM106.004 16.325L110.578 14.3071C110.046 13.101 109.19 11.9051 107.888 11.0201L105.078 15.1558L102.268 19.2916C101.746 18.937 101.507 18.5204 101.429 18.3428L106.004 16.325ZM105.078 15.1558L107.888 11.0201C106.468 10.0555 104.885 9.72847 103.411 9.81044L103.689 14.8027L103.966 19.795C103.788 19.8049 103.524 19.7953 103.206 19.7145C102.881 19.632 102.559 19.4897 102.268 19.2916L105.078 15.1558ZM103.689 14.8027L103.411 9.81044C101.91 9.89393 100.336 10.4125 99.0165 11.5823L102.333 15.3241L105.649 19.066C105.375 19.3093 105.06 19.4976 104.735 19.6227C104.417 19.7449 104.147 19.785 103.966 19.795L103.689 14.8027ZM102.333 15.3241L99.0165 11.5823C97.8574 12.6096 97.1533 13.8822 96.768 15.1473L101.551 16.6039L106.334 18.0604C106.275 18.2537 106.093 18.6731 105.649 19.066L102.333 15.3241ZM101.551 16.6039L96.768 15.1473C96.3989 16.3596 96.3082 17.5789 96.3718 18.7229L101.364 18.4452L106.356 18.1676C106.35 18.0517 106.355 17.989 106.356 17.9716C106.358 17.9552 106.356 17.989 106.334 18.0604L101.551 16.6039ZM101.364 18.4452L96.3718 18.7229C96.4356 19.8704 96.6602 21.0674 97.151 22.2269L101.756 20.2779L106.36 18.3289C106.406 18.4385 106.37 18.4138 106.356 18.1676L101.364 18.4452ZM101.756 20.2779L97.1743 22.2809C97.6899 23.4602 98.5047 24.627 99.7318 25.5206L102.675 21.4787L105.618 17.4368C106.074 17.7682 106.275 18.1345 106.337 18.2749L101.756 20.2779ZM102.675 21.4787L99.7941 25.5652C101.236 26.5814 102.857 26.9223 104.358 26.8388L104.081 21.8465L103.803 16.8542C103.983 16.8442 104.256 16.854 104.586 16.9403C104.923 17.0286 105.256 17.1808 105.556 17.3922L102.675 21.4787Z" fill="white" mask="url(#path-1-outside-1_6064_4199)"/>
</g>
<path d="M127.261 5.88652L119.44 14.3821L119.672 1.91424L127.261 5.88652Z" fill="#410E0B"/>
<path d="M132.034 21.07L122.276 17.3095L131.92 13.6384L132.034 21.07Z" fill="#410E0B"/>
<defs>
<filter id="filter0_dd_6064_4199" x="0" y="0" width="118.982" height="42.5361" filterUnits="userSpaceOnUse" color-interpolation-filters="sRGB">
<feFlood flood-opacity="0" result="BackgroundImageFix"/>
<feColorMatrix in="SourceAlpha" type="matrix" values="0 0 0 0 0 0 0 0 0 0 0 0 0 0 0 0 0 0 127 0" result="hardAlpha"/>
<feOffset dy="1"/>
<feGaussianBlur stdDeviation="0.5"/>
<feColorMatrix type="matrix" values="0 0 0 0 0.254902 0 0 0 0 0.054902 0 0 0 0 0.0431373 0 0 0 0.2 0"/>
<feBlend mode="normal" in2="BackgroundImageFix" result="effect1_dropShadow_6064_4199"/>
<feColorMatrix in="SourceAlpha" type="matrix" values="0 0 0 0 0 0 0 0 0 0 0 0 0 0 0 0 0 0 127 0" result="hardAlpha"/>
<feOffset dy="1"/>
<feGaussianBlur stdDeviation="2"/>
<feColorMatrix type="matrix" values="0 0 0 0 0.254902 0 0 0 0 0.054902 0 0 0 0 0.0431373 0 0 0 0.15 0"/>
<feBlend mode="normal" in2="effect1_dropShadow_6064_4199" result="effect2_dropShadow_6064_4199"/>
<feBlend mode="normal" in="SourceGraphic" in2="effect2_dropShadow_6064_4199" result="shape"/>
</filter>
</defs>
</svg>
